<?xml version="1.0" standalone="no"?>
<!DOCTYPE svg PUBLIC "-//W3C//DTD SVG 20010904//EN"
 "http://www.w3.org/TR/2001/REC-SVG-20010904/DTD/svg10.dtd">
<svg version="1.0" xmlns="http://www.w3.org/2000/svg"
 width="425.000000pt" height="425.000000pt" viewBox="0 0 425.000000 425.000000"
 preserveAspectRatio="xMidYMid meet">
<metadata>
Created by potrace 1.15, written by Peter Selinger 2001-2017
</metadata>
<g transform="translate(0.000000,425.000000) scale(0.100000,-0.100000)"
fill="#000000" stroke="none">
<path d="M1820 3203 c-202 -17 -484 -74 -680 -140 -425 -141 -747 -375 -876
-638 -62 -127 -77 -196 -72 -325 6 -123 31 -206 92 -310 223 -377 770 -647
1481 -732 161 -19 596 -16 760 6 554 72 1009 260 1277 526 337 337 340 732 6
1069 -280 284 -787 485 -1362 540 -101 10 -520 12 -626 4z m495 -104 c357 -23
682 -104 950 -234 162 -79 258 -147 375 -264 169 -170 226 -302 218 -501 -8
-175 -71 -304 -223 -455 -325 -324 -936 -511 -1605 -492 -406 12 -742 89
-1055 241 -478 234 -691 600 -551 947 40 100 87 169 176 259 94 94 174 154
296 222 278 154 628 249 1014 277 170 12 229 12 405 0z"/>
<path d="M1906 2928 c-3 -13 -10 -93 -16 -178 -17 -254 -16 -249 -65 -297 -33
-31 -57 -44 -98 -53 -78 -18 -212 -9 -263 18 -54 28 -111 93 -119 135 -10 54
13 142 61 235 24 47 42 87 40 89 -2 2 -49 -13 -105 -32 -669 -233 -909 -715
-548 -1101 83 -89 176 -160 280 -215 l78 -41 -25 51 c-61 119 -55 205 18 277
95 96 244 83 367 -33 l47 -44 20 44 c41 92 127 107 253 45 123 -61 228 -180
270 -306 l21 -64 22 64 c60 177 244 338 390 342 65 1 101 -20 131 -80 11 -21
20 -40 21 -41 0 -2 21 17 46 40 58 57 124 88 198 94 51 5 67 2 115 -22 80 -39
110 -87 110 -175 0 -53 -6 -77 -31 -128 -17 -34 -28 -62 -25 -62 4 0 42 20 86
45 328 187 486 454 420 709 -65 249 -337 479 -713 605 -51 17 -95 31 -98 31
-2 0 13 -33 35 -72 106 -197 92 -317 -45 -388 -39 -20 -66 -26 -141 -28 -138
-6 -233 33 -261 105 -6 16 -18 123 -27 238 -16 195 -22 236 -32 210 -2 -5 -26
-45 -53 -87 l-50 -78 -99 0 -98 0 -52 85 c-29 47 -54 85 -57 85 -2 0 -6 -10
-8 -22z"/>
</g>
</svg>
