<?xml version="1.0" standalone="no"?>
<!DOCTYPE svg PUBLIC "-//W3C//DTD SVG 20010904//EN"
 "http://www.w3.org/TR/2001/REC-SVG-20010904/DTD/svg10.dtd">
<svg version="1.0" xmlns="http://www.w3.org/2000/svg"
 width="400.000000pt" height="400.000000pt" viewBox="0 0 400.000000 400.000000"
 preserveAspectRatio="xMidYMid meet">
<metadata>
Created by potrace 1.15, written by Peter Selinger 2001-2017
</metadata>
<g transform="translate(0.000000,400.000000) scale(0.100000,-0.100000)"
fill="#000000" stroke="none">
<path d="M3030 3291 c-182 -25 -383 -136 -547 -303 -103 -104 -141 -151 -201
-252 -24 -42 -43 -64 -46 -55 -22 69 -24 110 -11 209 15 124 46 199 102 251
43 42 99 73 113 64 33 -20 -11 -135 -52 -135 -21 0 -21 1 -3 13 26 19 3 30
-23 11 -26 -18 -27 -27 -6 -48 21 -22 61 -11 102 28 43 40 48 65 23 120 -16
37 -25 46 -45 46 -25 0 -91 -35 -174 -92 -62 -43 -95 -116 -94 -209 1 -94 -14
-87 -21 9 -5 87 -23 130 -71 174 -57 53 -156 119 -173 116 -21 -4 -63 -74 -63
-106 0 -52 83 -122 124 -106 22 9 20 51 -3 64 -26 13 -38 -5 -14 -20 16 -9 15
-10 -7 -8 -32 4 -51 41 -48 93 4 57 25 55 92 -5 49 -45 58 -61 77 -123 27 -86
34 -238 18 -347 -17 -109 -20 -112 -63 -41 -152 250 -386 451 -642 551 -139
54 -188 63 -318 57 -160 -7 -216 -37 -216 -117 1 -66 45 -139 160 -260 67 -71
86 -101 94 -145 4 -22 13 -49 20 -60 7 -11 15 -40 19 -63 3 -24 14 -54 25 -65
11 -12 22 -34 25 -48 9 -35 85 -127 122 -147 22 -11 71 -17 178 -20 l148 -5
-49 -28 c-27 -15 -82 -63 -122 -106 -73 -78 -109 -138 -110 -181 0 -12 -8 -39
-19 -60 -10 -20 -21 -54 -25 -75 -6 -31 -3 -41 19 -62 19 -20 25 -36 25 -70 0
-48 24 -75 66 -75 25 0 34 -17 34 -69 0 -42 14 -61 45 -61 26 0 55 -29 55 -56
-1 -30 -37 -104 -74 -148 -54 -66 -76 -109 -76 -147 0 -30 6 -41 35 -63 19
-15 49 -32 67 -38 28 -10 33 -9 55 16 27 32 33 96 8 96 -20 0 -19 16 5 67 17
39 22 43 54 43 45 0 52 -20 50 -145 -3 -177 -85 -406 -166 -466 -23 -16 -51
-29 -64 -29 -24 0 -54 33 -54 60 0 26 25 54 40 45 10 -6 9 -10 -3 -17 -18 -10
-12 -38 8 -38 42 0 42 73 0 92 -30 14 -50 0 -71 -50 -22 -53 -18 -95 12 -126
34 -34 55 -33 121 5 l55 32 -6 -29 c-19 -85 -36 -217 -36 -275 0 -118 56 -250
126 -299 48 -32 136 -40 165 -14 32 29 49 69 49 115 0 84 -115 155 -163 101
-30 -32 -17 -90 23 -112 28 -15 65 22 50 50 -15 27 -44 27 -37 -1 4 -16 3 -18
-9 -8 -18 15 -18 43 0 58 11 10 20 10 38 0 76 -39 88 -91 34 -145 -37 -37 -59
-41 -111 -20 -41 17 -67 57 -96 145 -18 53 -21 79 -16 150 7 106 60 271 130
404 l31 59 16 -61 c9 -33 29 -75 43 -94 80 -105 207 -72 207 55 0 85 -80 122
-117 54 -14 -25 -5 -54 19 -62 24 -7 43 9 35 30 -4 10 -13 13 -23 9 -12 -4
-15 -2 -12 8 7 21 40 23 55 3 20 -27 16 -81 -7 -104 -30 -30 -63 -25 -98 14
-43 49 -56 98 -54 201 0 50 1 146 2 215 1 111 4 131 27 182 14 33 33 58 44 61
19 5 23 12 60 113 14 36 31 64 43 70 24 11 39 63 66 234 36 228 31 216 52 109
21 -105 44 -153 75 -157 29 -4 51 48 78 183 23 119 27 118 45 -10 11 -75 50
-216 67 -241 5 -7 17 -13 28 -15 13 -3 21 -13 23 -29 5 -45 56 -134 84 -148
19 -9 33 -29 48 -69 43 -114 45 -135 27 -220 -9 -43 -17 -113 -17 -156 0 -158
-49 -281 -126 -313 -41 -17 -68 -5 -83 38 -19 55 30 125 67 96 20 -17 15 -40
-8 -33 -14 5 -20 2 -20 -9 0 -21 49 -21 57 0 7 19 -12 63 -32 70 -44 17 -95
-31 -95 -91 0 -39 27 -83 61 -101 29 -15 35 -14 75 1 54 21 110 84 128 145
l14 45 19 -45 c21 -48 55 -175 74 -276 6 -34 9 -104 8 -156 -4 -88 -7 -102
-44 -174 -46 -90 -86 -124 -145 -124 -31 0 -44 7 -69 35 -57 66 -32 133 57
151 40 8 59 -22 36 -54 -8 -12 -20 -22 -26 -22 -7 0 -6 5 1 14 17 21 -7 33
-26 13 -12 -11 -13 -19 -4 -36 7 -11 18 -21 27 -21 22 0 64 46 64 70 0 29 -35
60 -69 60 -34 0 -91 -37 -108 -70 -27 -54 -3 -142 47 -168 54 -28 163 8 211
70 79 101 103 199 98 397 l-4 129 25 -19 c14 -10 36 -27 50 -38 32 -26 71 -26
101 -2 21 17 24 28 24 80 -1 48 -5 66 -22 82 -25 26 -55 19 -71 -15 -14 -32 9
-69 30 -48 11 11 10 15 -2 22 -13 9 -13 11 0 20 11 7 19 5 28 -8 24 -32 -10
-102 -50 -102 -33 0 -96 68 -118 128 -52 137 -69 372 -36 484 16 54 20 58 47
58 18 0 36 -8 47 -22 9 -12 32 -37 50 -55 38 -38 41 -71 8 -102 -27 -25 -46
-21 -46 10 0 21 16 26 23 7 3 -7 6 -3 6 8 1 22 -23 39 -40 28 -15 -9 -10 -68
7 -92 39 -56 124 -1 124 80 0 24 9 55 21 75 31 50 16 90 -72 187 -118 131
-135 203 -50 212 31 4 42 21 40 64 -3 56 -1 59 41 76 43 18 55 39 45 85 -6 25
-2 36 21 60 26 27 27 31 15 68 -6 22 -23 53 -36 69 -14 17 -25 40 -25 51 0 63
-92 167 -205 232 l-60 34 125 6 c131 5 172 19 185 59 3 10 19 35 35 55 17 21
30 46 30 57 0 10 10 32 22 48 11 16 25 48 29 72 11 63 30 131 40 148 5 8 17
28 27 44 9 16 28 38 40 50 29 25 123 160 140 199 15 35 15 92 1 119 -25 46
-167 75 -289 59z"/>
</g>
</svg>
