<?xml version="1.0" standalone="no"?>
<!DOCTYPE svg PUBLIC "-//W3C//DTD SVG 20010904//EN"
 "http://www.w3.org/TR/2001/REC-SVG-20010904/DTD/svg10.dtd">
<svg version="1.0" xmlns="http://www.w3.org/2000/svg"
 width="1050.000000pt" height="1050.000000pt" viewBox="0 0 1050.000000 1050.000000"
 preserveAspectRatio="xMidYMid meet">
<metadata>
Created by potrace 1.15, written by Peter Selinger 2001-2017
</metadata>
<g transform="translate(0.000000,1050.000000) scale(0.100000,-0.100000)"
fill="#000000" stroke="none">
<path d="M1469 8840 c-104 -18 -217 -56 -457 -153 l-253 -101 49 -11 c97 -22
349 -162 312 -173 -34 -10 -85 -72 -121 -147 l-39 -80 60 -13 c58 -13 60 -14
60 -45 0 -50 -27 -153 -54 -206 l-25 -48 61 -18 c72 -22 76 -30 87 -164 14
-160 -23 -510 -73 -698 -14 -52 -14 -53 7 -53 12 0 48 13 80 29 61 32 63 30
46 -33 -11 -41 -97 -141 -130 -151 -60 -19 24 -70 137 -82 l69 -8 25 -50 c19
-39 25 -69 28 -143 4 -80 -10 -218 -25 -258 -2 -6 16 -21 42 -34 26 -12 48
-28 50 -34 2 -6 8 -89 13 -184 l9 -173 31 -32 c29 -30 32 -39 32 -95 0 -58 1
-62 23 -62 24 0 24 0 19 -104 -2 -57 -1 -121 2 -141 7 -35 8 -36 26 -20 13 11
32 15 66 13 l49 -3 7 -60 c10 -81 56 -170 128 -249 76 -84 95 -142 87 -265 -3
-48 -9 -96 -13 -108 -6 -22 -4 -23 60 -23 l66 0 0 -39 c0 -44 -23 -117 -46
-142 -14 -15 -12 -17 18 -22 18 -3 67 -9 109 -12 l76 -7 6 -54 c7 -65 48 -145
95 -184 18 -15 58 -40 88 -55 31 -16 66 -42 79 -59 39 -51 76 -141 93 -229
l17 -82 50 17 c62 21 157 23 195 3 15 -8 40 -29 54 -47 22 -29 26 -30 26 -12
0 51 72 69 150 38 l40 -16 0 -82 0 -81 52 -21 53 -22 17 -83 c40 -197 41 -209
35 -438 -7 -325 -65 -832 -107 -944 -65 -172 -313 -435 -637 -676 -108 -80
-118 -95 -87 -139 26 -37 70 -54 136 -51 58 2 60 2 75 -29 15 -32 67 -79 108
-99 13 -6 129 -4 338 6 l317 15 0 94 0 94 88 -6 c48 -4 100 -9 115 -12 28 -6
28 -6 20 33 -4 21 -8 83 -8 138 0 92 2 104 28 148 15 26 45 59 67 73 21 14 54
50 74 80 46 69 88 96 141 91 22 -2 47 -7 56 -11 15 -6 16 0 11 59 l-5 67 33
-17 c18 -9 54 -37 79 -60 l47 -44 -4 134 c-4 140 5 224 39 335 27 93 33 99 61
73 32 -30 101 -53 159 -53 l49 0 -30 42 c-36 49 -72 160 -91 278 -27 167 -16
836 17 1078 l6 43 25 -53 c63 -136 127 -143 245 -25 52 52 58 55 58 28 0 -24
35 -68 69 -85 48 -25 151 -38 239 -31 l84 7 -20 21 c-24 26 -42 69 -42 100 0
12 11 44 23 72 l23 50 26 -57 c60 -129 187 -202 392 -223 64 -7 68 -6 62 11
-17 56 -25 126 -16 150 15 39 39 29 137 -58 40 -36 46 -38 110 -38 128 0 302
40 480 111 l72 28 43 -19 c24 -11 59 -20 78 -20 l35 0 23 81 c28 101 53 139
92 139 21 0 37 -10 58 -35 l29 -36 17 26 c43 66 224 151 445 209 l129 34 16
-70 c9 -39 16 -77 16 -84 0 -8 5 -14 10 -14 6 0 10 4 10 10 0 22 45 50 80 50
35 0 38 -3 49 -42 34 -114 126 -235 208 -272 36 -16 41 -22 46 -61 8 -57 41
-141 77 -199 l31 -48 44 61 c69 93 115 107 142 44 18 -42 23 -214 10 -339 l-8
-71 88 -9 88 -9 5 -77 c3 -42 8 -79 11 -82 3 -3 25 -16 50 -29 84 -44 128
-162 129 -339 0 -80 -14 -219 -26 -260 -4 -15 1 -18 34 -18 22 0 61 -12 93
-28 97 -49 139 -149 139 -332 0 -107 -5 -130 -26 -130 -47 0 -134 -73 -169
-141 -17 -32 -58 -180 -51 -186 3 -3 504 -53 535 -53 8 0 -5 -13 -30 -28 -96
-61 -164 -172 -176 -288 l-5 -51 293 -6 294 -6 45 27 c24 15 59 47 77 70 l33
44 0 257 c0 250 1 260 26 332 61 179 93 380 94 585 0 121 2 135 25 176 42 75
66 189 68 320 1 65 6 118 11 118 5 0 28 -20 52 -44 l44 -44 8 27 c4 14 7 180
7 368 0 338 0 342 -22 365 -41 43 -65 114 -65 190 0 38 3 72 6 76 4 3 23 -10
43 -29 20 -19 33 -27 30 -17 -30 86 -43 949 -17 1193 17 168 18 487 1 605 -21
152 -60 290 -111 395 -39 80 -64 117 -129 185 -44 47 -81 88 -81 92 0 4 -44
46 -97 93 -301 267 -714 448 -1193 524 -224 36 -341 45 -585 45 -233 0 -244
-1 -380 -31 -495 -111 -1028 -184 -1356 -186 l-175 0 -78 37 c-128 60 -312
101 -566 125 -63 6 -139 14 -167 17 l-53 5 20 39 19 38 -107 6 c-203 12 -456
37 -571 57 -267 45 -477 125 -562 216 -26 26 -72 70 -104 97 -72 62 -115 121
-115 158 0 33 12 35 84 13 70 -21 76 -20 76 19 0 31 3 34 45 46 25 7 45 14 45
16 0 2 -9 13 -20 24 -21 21 -35 63 -27 83 2 7 55 26 116 42 l112 29 -6 41
c-27 175 -220 331 -498 403 -108 28 -108 28 -126 68 -33 73 -117 126 -272 170
-82 24 -97 25 -141 15 -90 -20 -146 -14 -224 24 -92 44 -228 72 -419 85 -82 5
-153 10 -156 10 -4 0 -9 10 -13 23 -10 40 -73 103 -128 127 -59 26 -202 36
-289 20z m891 -350 c34 -34 43 -69 30 -120 -18 -72 -56 -127 -172 -247 -60
-61 -115 -128 -124 -148 -20 -49 -20 -143 2 -211 13 -43 34 -74 92 -137 47
-51 87 -106 105 -146 59 -126 45 -277 -38 -416 -46 -75 -70 -102 -117 -126
-51 -26 -108 -78 -108 -98 0 -13 8 -16 39 -13 54 5 128 -30 221 -105 41 -34
77 -59 79 -57 12 11 -16 101 -48 155 -22 35 -35 65 -30 67 17 7 81 -32 110
-67 68 -83 97 -243 80 -434 -10 -99 -30 -233 -47 -302 -2 -11 4 -4 15 17 48
85 116 99 192 38 l39 -31 0 116 0 116 34 30 c37 32 110 168 126 235 12 49 80
157 170 268 70 86 71 86 84 -6 4 -26 11 -50 17 -53 5 -4 26 3 47 15 35 20 39
28 85 168 27 81 65 181 85 222 l36 75 9 -150 c5 -82 11 -152 13 -154 2 -2 12
3 21 11 20 17 77 38 104 38 14 0 19 -7 19 -30 0 -46 -37 -148 -76 -206 -32
-48 -131 -151 -138 -143 -2 2 1 39 6 82 5 44 7 81 4 84 -12 13 -81 -23 -131
-69 -96 -88 -202 -270 -224 -388 -15 -77 -50 -166 -90 -229 -62 -98 -74 -191
-25 -191 60 0 139 117 170 250 17 78 33 93 65 64 38 -34 62 -96 70 -179 4 -44
17 -123 30 -175 l23 -95 8 54 c11 72 47 131 96 159 22 12 42 22 44 22 2 0 3
-51 0 -112 -3 -100 0 -126 26 -228 16 -63 48 -157 70 -209 l41 -94 -24 -41
c-48 -83 -90 -314 -84 -471 2 -65 -9 -74 -44 -33 -34 41 -66 207 -67 353 -1
56 -2 59 -16 40 -26 -35 -53 -143 -60 -238 -7 -103 8 -289 35 -447 11 -58 17
-107 15 -109 -9 -9 -67 25 -94 56 l-30 34 0 -26 c0 -72 96 -286 195 -433 31
-45 45 -77 45 -100 0 -46 36 -148 71 -198 35 -51 73 -80 147 -110 55 -22 56
-24 72 -81 20 -74 51 -138 89 -183 32 -40 96 -78 108 -66 4 4 10 69 13 144 l5
137 138 -167 c75 -92 137 -170 137 -173 0 -2 -26 -12 -57 -20 -32 -9 -64 -18
-70 -20 -9 -3 -8 -13 6 -37 25 -42 46 -125 65 -259 23 -155 24 -153 -32 -100
-44 43 -138 100 -189 115 l-22 7 24 -43 c61 -111 90 -390 68 -665 l-6 -83 -36
-6 c-102 -18 -161 -106 -169 -252 -3 -45 -8 -82 -11 -82 -4 0 -38 21 -76 46
-89 59 -119 74 -144 74 -30 0 -51 -28 -51 -69 0 -32 6 -41 50 -74 27 -20 57
-49 67 -63 16 -25 16 -27 -2 -40 -11 -8 -43 -14 -77 -14 l-57 0 24 -36 c22
-32 25 -48 25 -118 0 -131 4 -126 -105 -126 l-93 0 -6 -37 c-4 -21 -11 -61
-17 -89 l-10 -52 -62 -6 c-34 -3 -100 -8 -147 -12 l-85 -6 -13 46 c-11 42 -15
46 -42 46 -25 0 -47 -15 -105 -70 -41 -39 -79 -70 -86 -70 -14 0 -7 82 11 122
15 31 182 171 268 222 171 103 270 266 292 478 5 51 17 147 26 213 13 98 15
174 11 410 -6 321 -26 544 -82 893 -12 74 -21 101 -44 130 -23 29 -33 61 -51
155 -12 64 -24 117 -26 117 -2 0 -22 -10 -44 -21 -56 -30 -116 -34 -183 -15
-72 21 -205 110 -214 143 -6 26 1 121 13 183 l7 35 -23 -20 c-25 -23 -52 -72
-69 -130 -7 -22 -14 -46 -17 -53 -6 -19 -41 3 -65 41 -25 41 -65 167 -80 252
l-11 66 -38 -41 c-42 -45 -73 -51 -94 -17 -18 28 -36 115 -36 171 0 42 -1 42
-31 38 -17 -2 -47 3 -70 13 -36 17 -39 21 -39 58 0 22 -7 64 -17 93 -14 45
-19 52 -34 43 -26 -14 -68 6 -80 38 -7 18 -9 87 -7 189 l4 162 -21 -10 c-28
-12 -81 12 -90 42 -9 28 25 98 92 194 l58 81 -2 100 c-1 93 -30 260 -55 324
-9 24 -11 20 -29 -45 -10 -39 -36 -127 -58 -195 l-39 -124 25 -7 c14 -4 33
-14 44 -24 16 -15 17 -19 4 -44 -14 -26 -133 -140 -147 -140 -3 0 -10 50 -13
110 l-8 111 -43 -7 c-41 -6 -43 -5 -50 21 -4 15 -4 77 -1 136 l6 109 -34 0
c-58 0 -65 7 -65 66 0 29 9 100 20 156 11 57 20 104 20 106 0 2 -15 -8 -33
-22 -19 -15 -37 -26 -42 -26 -10 0 14 186 41 322 5 27 5 27 -23 13 -34 -17
-76 -9 -122 24 -38 27 -51 83 -58 242 -5 102 -3 135 11 176 19 56 56 103 81
103 9 0 41 -25 70 -55 l53 -56 77 3 77 2 36 -39 c20 -21 37 -34 39 -28 2 5 10
18 17 28 12 17 14 17 40 0 32 -21 43 -14 30 22 -10 30 -19 35 -96 57 -58 17
-169 84 -274 166 -34 27 -79 57 -100 68 -45 23 -84 63 -110 112 -16 29 -19 58
-19 176 l0 140 39 79 c69 140 248 303 465 423 131 73 194 155 231 299 20 79
83 127 208 158 79 19 99 18 122 -5z m6573 -6448 c48 -49 67 -116 67 -238 0
-112 -28 -213 -70 -256 -29 -28 -30 -29 -136 -26 l-108 3 -8 32 c-5 18 -18 37
-29 43 -17 9 -27 5 -68 -29 -65 -54 -97 -66 -127 -46 -26 17 -44 97 -27 124
19 32 157 91 276 118 l119 28 -5 42 c-7 64 8 189 27 218 23 35 46 31 89 -13z
m-5809 -89 c-18 -96 -80 -189 -223 -337 -99 -101 -249 -234 -307 -273 -25 -16
-26 -15 -56 14 l-30 31 48 33 c142 96 340 288 488 472 43 53 80 97 83 97 2 0
1 -17 -3 -37z m5933 -535 c7 -6 13 -16 13 -22 0 -28 65 -135 102 -168 34 -32
39 -42 33 -65 -3 -16 -12 -34 -19 -41 -15 -15 -84 -33 -106 -28 -8 2 -27 7
-42 10 -17 4 -29 16 -37 37 -9 27 -8 33 16 55 26 24 27 27 12 52 -18 34 -44
39 -71 15 -25 -22 -57 -90 -58 -120 0 -30 -31 -45 -79 -37 -133 21 -142 108
-23 211 131 112 209 143 259 101z"/>
<path d="M1565 7761 c-129 -60 -155 -208 -52 -298 100 -88 271 -63 327 47 23
46 26 119 6 158 -50 96 -181 139 -281 93z"/>
<path d="M1355 7327 c-33 -11 -40 -17 -37 -37 4 -38 22 -52 56 -45 86 17 90
17 136 -14 25 -16 70 -60 99 -97 72 -90 111 -107 256 -112 102 -3 112 -2 133
18 41 39 26 55 -53 55 -97 0 -182 41 -267 127 -35 35 -85 74 -111 87 -58 28
-155 36 -212 18z"/>
</g>
</svg>
