<?xml version="1.0" standalone="no"?>
<!DOCTYPE svg PUBLIC "-//W3C//DTD SVG 20010904//EN"
 "http://www.w3.org/TR/2001/REC-SVG-20010904/DTD/svg10.dtd">
<svg version="1.0" xmlns="http://www.w3.org/2000/svg"
 width="417.000000pt" height="580.000000pt" viewBox="0 0 417.000000 580.000000"
 preserveAspectRatio="xMidYMid meet">
<metadata>
Created by potrace 1.15, written by Peter Selinger 2001-2017
</metadata>
<g transform="translate(0.000000,580.000000) scale(0.100000,-0.100000)"
fill="#000000" stroke="none">
<path d="M1276 5196 c-7 -30 10 -83 40 -119 34 -40 106 -93 214 -156 111 -65
146 -89 139 -95 -2 -3 -47 -12 -99 -20 -119 -19 -178 -39 -243 -82 -58 -38
-87 -43 -87 -16 0 30 132 115 205 133 l30 7 -30 1 c-108 4 -328 -75 -475 -169
-8 -5 -42 -22 -75 -37 -88 -39 -227 -181 -283 -290 -58 -111 -53 -124 9 -22
27 46 62 97 77 112 27 29 153 127 205 161 32 20 138 58 144 52 2 -2 -12 -14
-32 -26 -19 -12 -41 -27 -48 -33 -7 -7 -46 -41 -86 -76 -285 -250 -433 -461
-627 -893 -84 -187 -96 -231 -101 -362 -6 -140 2 -175 64 -260 44 -59 55 -111
34 -145 -11 -18 6 -53 46 -97 15 -16 42 -46 58 -65 17 -19 39 -41 49 -49 17
-14 17 -13 1 25 -9 22 -28 60 -42 84 -45 76 -67 288 -38 358 14 32 64 87 72
79 2 -2 5 -61 7 -132 3 -117 7 -140 41 -244 21 -63 71 -182 111 -264 114 -231
128 -276 129 -426 0 -119 -1 -128 -30 -185 -47 -94 -128 -138 -220 -121 -48 9
-99 56 -114 105 -11 37 -9 45 15 93 14 29 27 54 28 55 0 1 13 4 28 8 24 6 29
3 42 -26 8 -19 18 -51 21 -71 8 -54 79 -102 100 -68 3 5 -1 10 -9 10 -27 0
-46 43 -44 98 2 38 -2 56 -17 72 -67 74 -170 59 -215 -31 -39 -75 -34 -229 8
-275 10 -10 28 -33 40 -51 35 -50 94 -67 205 -60 152 10 231 47 303 139 53 69
63 100 57 184 -4 54 0 83 17 134 19 55 21 77 16 148 -4 46 -16 110 -27 144
-10 33 -19 64 -19 69 0 5 -20 50 -44 101 -24 51 -57 132 -74 179 -28 80 -30
93 -27 205 3 122 27 239 61 306 43 85 166 195 262 235 l37 15 -31 -34 c-129
-141 -194 -274 -209 -430 -10 -105 1 -151 52 -214 24 -30 39 -54 32 -54 -6 0
-38 7 -71 16 -68 17 -82 14 -44 -11 45 -30 159 -64 236 -70 65 -6 84 -4 149
19 79 27 152 66 188 99 40 36 14 37 -45 2 -93 -57 -174 -45 -246 35 -45 51
-60 104 -47 174 10 56 53 153 91 206 80 112 330 280 473 317 65 17 68 17 102
-1 19 -11 35 -25 35 -32 0 -7 -29 -44 -65 -83 -73 -80 -103 -132 -112 -196 -5
-37 -3 -45 10 -45 9 0 18 13 22 33 18 81 89 128 161 105 38 -13 39 -14 39 -63
0 -28 -6 -64 -13 -80 -14 -33 -61 -65 -95 -65 -12 0 -40 -11 -62 -25 -22 -13
-51 -25 -64 -25 -13 0 -39 -13 -58 -30 -18 -16 -42 -30 -52 -30 -32 0 -82 -73
-62 -93 7 -7 12 -5 18 9 12 34 34 47 82 52 42 4 50 1 64 -18 49 -70 -48 -170
-240 -248 -83 -34 -162 -82 -163 -99 0 -7 -13 -19 -29 -27 -31 -17 -70 -95
-79 -160 -7 -53 12 -40 27 18 11 44 50 88 91 101 23 7 60 -10 60 -29 0 -36
-38 -118 -81 -174 -94 -124 -140 -324 -110 -480 16 -84 31 -72 30 24 -1 49 4
101 10 116 10 26 48 55 58 44 7 -7 38 -133 64 -266 27 -133 58 -196 130 -265
62 -60 110 -85 159 -85 42 0 37 13 -12 31 -37 14 -45 22 -60 65 -44 123 -8
138 139 58 80 -44 125 -84 146 -134 26 -59 60 -101 97 -120 23 -12 46 -32 52
-45 12 -28 56 -60 66 -50 4 4 -2 14 -14 24 -32 26 -46 59 -48 113 -1 51 13 72
42 61 55 -22 142 -168 142 -240 0 -36 -43 -239 -53 -249 -6 -6 -160 47 -209
72 -105 54 -238 87 -408 99 -108 8 -296 -28 -393 -74 -90 -43 -187 -141 -237
-241 -25 -48 -43 -209 -23 -197 6 4 12 37 15 75 4 51 12 78 32 110 68 107 216
202 317 202 28 0 28 -1 -24 -53 -69 -69 -80 -87 -107 -181 -21 -71 -23 -86
-13 -161 14 -113 49 -182 135 -267 75 -74 172 -128 266 -147 186 -39 487 34
607 146 11 10 31 27 46 38 36 29 229 245 229 258 0 21 73 157 84 157 6 0 56 6
111 14 95 13 194 45 252 83 30 20 37 13 20 -20 -11 -21 -16 -24 -26 -14 -9 9
-14 9 -21 -3 -7 -10 -5 -18 5 -26 11 -9 6 -20 -31 -68 -25 -32 -66 -72 -90
-89 -48 -34 -152 -90 -187 -102 l-22 -8 22 -4 c28 -6 115 32 170 74 24 18 50
33 59 33 20 0 121 102 165 167 18 26 33 49 35 51 4 6 158 -159 190 -204 38
-53 71 -139 82 -214 l8 -55 -28 -2 c-60 -5 -149 140 -151 244 0 32 2 63 4 68
2 6 0 12 -6 15 -5 3 -16 -17 -23 -45 -16 -61 -9 -173 14 -235 18 -49 22 -66
53 -214 27 -127 49 -175 106 -231 48 -46 78 -57 89 -29 3 8 10 12 16 9 6 -4 8
-11 5 -16 -4 -5 13 -9 36 -9 l42 0 -40 41 c-55 55 -93 167 -93 271 0 40 3 83
6 95 13 46 24 9 24 -76 0 -155 27 -246 88 -303 27 -25 38 -28 96 -28 62 0 66
2 89 33 13 17 27 40 30 50 10 28 -11 20 -25 -10 -10 -22 -21 -29 -50 -31 -48
-4 -107 41 -134 101 -27 58 -24 173 5 252 13 35 24 95 28 145 5 75 2 94 -21
159 -29 83 -55 132 -73 138 -7 3 -1 -15 12 -40 18 -31 26 -65 30 -118 5 -70 4
-77 -28 -133 -51 -91 -52 -90 -87 59 -17 75 -76 186 -143 267 -32 40 -68 85
-79 101 l-20 27 26 45 c27 46 66 149 93 245 23 83 6 195 -42 280 -20 35 -44
69 -53 77 -31 25 -91 53 -112 53 -41 0 -24 43 43 106 61 59 147 124 164 124 5
0 24 8 43 19 41 22 125 41 180 41 22 0 40 5 40 10 0 15 -51 12 -145 -10 -100
-23 -176 -54 -259 -104 -83 -50 -105 -72 -136 -141 -15 -33 -37 -68 -48 -79
-12 -10 -35 -47 -51 -81 -29 -60 -31 -71 -31 -178 0 -163 36 -269 120 -357
l41 -42 -22 -19 c-12 -10 -29 -19 -39 -19 -9 0 -20 -4 -26 -8 -15 -14 -136
-32 -212 -32 l-70 0 -7 32 c-7 31 -20 47 -37 48 -5 0 -8 -19 -8 -42 0 -74 -12
-32 -21 74 -11 138 -51 243 -125 334 -41 50 -44 67 -6 33 15 -14 56 -46 92
-71 36 -25 74 -54 86 -64 33 -30 74 -97 74 -121 0 -13 5 -23 10 -23 14 0 12
34 -6 109 -21 86 -68 175 -113 213 -20 17 -29 27 -21 23 8 -5 23 -15 32 -23
70 -60 -18 96 -98 173 -28 28 -40 45 -33 52 7 7 -29 36 -107 87 -64 42 -121
76 -128 76 -6 0 -6 4 3 9 9 6 -18 19 -85 41 -141 47 -160 59 -244 151 -71 79
-75 85 -78 138 -2 31 1 93 8 138 14 86 4 223 -15 225 -19 2 -66 -102 -86 -192
l-20 -92 53 -66 c45 -58 42 -62 -10 -14 -7 6 -20 12 -27 12 -12 0 -12 -7 -1
-45 29 -95 135 -235 206 -272 42 -22 53 -24 150 -18 79 4 99 3 80 -5 -14 -6
-64 -11 -112 -12 -49 0 -88 -3 -88 -6 0 -2 16 -19 36 -36 54 -47 132 -86 173
-87 33 0 34 -1 14 -11 -13 -6 -23 -15 -23 -19 0 -8 127 -105 164 -126 11 -6
35 -14 53 -16 37 -6 166 -47 161 -52 -2 -2 -39 7 -83 20 -87 25 -109 23 -101
-8 3 -14 -13 -3 -51 34 -32 30 -62 59 -67 66 -15 16 -109 84 -238 171 -125 84
-168 127 -242 237 -65 97 -65 99 -67 205 -3 127 46 283 121 395 42 61 196 214
277 275 40 30 118 100 173 157 118 122 163 205 178 324 l9 74 2 -77 c0 -42 -3
-88 -9 -102 -6 -18 -5 -37 5 -65 23 -67 29 -170 12 -227 -17 -56 -52 -146 -73
-186 -8 -14 -14 -32 -14 -38 0 -27 30 14 65 88 20 43 63 131 95 197 81 165 83
182 31 287 -48 96 -107 170 -117 145 -3 -8 -14 -14 -23 -12 -28 5 -154 66
-148 71 2 3 23 -5 46 -17 65 -33 112 -28 176 20 68 52 84 53 25 2 l-44 -39 25
-33 c28 -37 119 -218 119 -237 0 -7 4 -12 9 -12 5 0 11 -14 15 -31 5 -25 -1
-39 -29 -75 -22 -29 -38 -66 -46 -102 -15 -76 -17 -82 -18 -49 -1 15 -5 27
-11 27 -16 0 -11 -52 9 -97 22 -47 102 -112 139 -113 31 0 28 8 -17 47 -42 36
-66 90 -57 127 11 42 52 76 93 76 21 0 52 9 69 19 l31 19 40 -34 c61 -51 97
-117 90 -167 -10 -74 -68 -127 -146 -135 -62 -6 -57 -22 7 -22 87 0 206 44
290 107 38 29 41 19 8 -29 -22 -32 -22 -35 -5 -31 39 11 98 95 124 176 14 43
25 88 25 100 0 19 -3 18 -20 -10 -28 -47 -89 -43 -110 7 -8 18 -21 30 -41 34
-21 4 -33 16 -46 43 -13 27 -31 44 -63 60 -25 12 -51 22 -58 22 -22 1 -124
115 -176 196 -43 67 -87 108 -100 94 -3 -2 2 -42 10 -89 8 -47 14 -103 12
-125 -2 -32 -6 -23 -16 45 -7 47 -24 131 -39 188 -14 58 -22 107 -17 112 5 4
55 50 111 102 95 88 103 94 137 90 43 -5 44 -12 16 -122 -15 -62 -19 -68 -19
-38 -1 58 -17 53 -19 -5 -1 -48 3 -56 43 -101 33 -37 52 -50 84 -56 23 -4 41
-5 41 -2 0 2 -13 20 -30 38 -51 58 -50 76 15 233 25 61 27 84 10 136 -5 16 5
33 37 70 108 123 218 139 249 36 9 -31 8 -43 -5 -69 -19 -37 -20 -42 -3 -42
22 0 40 43 45 110 5 75 -6 108 -65 185 -21 28 -31 45 -23 39 8 -6 28 -14 43
-18 55 -13 87 -63 87 -134 l0 -36 17 24 c25 36 21 106 -10 167 -35 69 -84 123
-110 123 -19 0 -17 -4 13 -35 18 -19 32 -36 29 -38 -2 -2 -37 -1 -77 2 -65 6
-75 4 -84 -12 -5 -11 -30 -28 -55 -39 -32 -14 -49 -29 -59 -54 -17 -41 -18
-55 -1 -50 6 3 24 7 39 10 14 3 41 18 58 33 27 23 35 25 52 14 14 -9 23 -9 32
-1 15 11 24 3 46 -40 13 -25 13 -25 -7 -7 -12 10 -37 23 -58 28 -29 8 -40 7
-54 -5 -24 -22 -86 -46 -118 -46 -22 0 -40 -13 -81 -59 -43 -49 -71 -69 -169
-119 -65 -33 -141 -67 -169 -76 -28 -9 -77 -32 -108 -51 -52 -31 -77 -38 -39
-10 15 11 15 15 3 30 -8 9 -15 26 -15 38 -3 39 -142 146 -337 259 -59 34 -88
56 -88 69 0 9 -16 48 -35 85 -36 68 -43 98 -25 109 6 4 10 -7 10 -25 0 -42 16
-30 24 17 3 21 22 58 41 82 19 24 35 47 35 51 0 4 12 19 26 34 21 20 24 29 15
39 -14 17 -16 56 -6 81 7 16 5 18 -11 12 -10 -5 -32 -12 -49 -16 -79 -21 -159
-60 -137 -68 21 -7 50 -68 57 -121 5 -38 4 -52 -4 -47 -6 4 -11 23 -11 42 0
41 -20 93 -44 113 -15 13 -21 10 -57 -25 -22 -21 -50 -52 -61 -68 l-21 -28 50
-47 c27 -25 58 -59 67 -76 11 -18 -6 -4 -41 33 -32 34 -64 62 -70 62 -6 0 -16
-14 -22 -30 -12 -37 1 -80 24 -80 30 0 174 -63 192 -83 l18 -21 -27 17 c-35
22 -122 54 -170 63 -36 6 -38 5 -38 -21 0 -43 29 -131 49 -149 16 -15 25 -16
58 -7 79 22 196 7 218 -29 4 -7 -5 -4 -21 6 -22 15 -46 19 -109 18 -44 -1 -93
-6 -109 -13 -36 -15 -46 -6 -81 66 -32 68 -42 161 -25 232 16 68 83 158 147
199 39 25 239 112 258 112 2 0 -3 -14 -12 -31 -24 -47 -10 -93 44 -145 45 -42
83 -91 83 -106 0 -4 -16 -10 -35 -14 -19 -3 -35 -11 -35 -16 0 -6 11 -7 26 -4
15 4 32 2 40 -5 19 -15 18 -30 -1 -23 -21 8 -73 -15 -80 -35 -10 -32 -8 -112
3 -123 9 -9 12 -4 12 20 0 59 64 96 105 62 14 -11 12 -15 -15 -31 -25 -16 -30
-25 -30 -57 0 -47 17 -99 34 -105 8 -3 11 5 8 29 -3 25 2 39 23 59 28 29 32
29 149 5 42 -8 62 -8 69 -1 8 8 3 11 -18 11 -27 0 -28 1 -9 15 18 13 17 14
-19 15 -22 0 -52 8 -68 17 -32 19 -41 40 -10 23 23 -12 51 -13 51 -2 0 4 -23
17 -50 29 -47 20 -71 46 -56 60 3 4 12 1 18 -5 7 -7 21 -12 32 -12 17 0 15 5
-15 37 -18 21 -23 28 -9 16 38 -33 94 -53 150 -53 47 0 50 2 50 25 0 23 -4 25
-46 25 -53 0 -73 18 -134 116 -25 41 -49 66 -73 77 -56 27 -58 41 -6 33 33 -5
53 -17 87 -52 25 -25 48 -43 53 -42 4 2 -1 20 -11 41 -13 26 -15 37 -6 37 20
0 82 -52 102 -85 15 -24 19 -27 22 -12 2 10 -6 34 -18 54 l-21 36 35 -6 c44
-7 78 -32 108 -78 13 -21 26 -35 30 -33 8 5 -10 62 -25 82 -12 16 25 17 56 1
27 -14 66 -59 67 -76 0 -7 5 -13 11 -13 7 0 9 11 5 30 -6 30 -5 31 17 15 12
-8 27 -30 34 -48 l11 -32 1 40 c1 58 -28 131 -72 182 -31 34 -51 47 -100 61
-51 14 -72 28 -133 87 -40 39 -92 102 -117 140 -64 101 -155 185 -200 185 -17
0 -12 -9 27 -47 62 -62 120 -148 113 -168 -4 -8 -16 -15 -27 -15 -30 0 -265
56 -355 85 -27 8 -72 23 -99 31 -115 37 -223 125 -241 197 -10 37 -22 42 -29
13z m629 -437 c22 -6 83 -31 135 -56 125 -60 163 -73 219 -74 l46 -1 -42 -10
c-36 -9 -54 -7 -130 19 -48 17 -116 42 -150 57 -34 14 -98 31 -142 38 -73 10
-85 9 -151 -12 -39 -12 -89 -36 -111 -52 -30 -22 -38 -24 -30 -10 13 24 114
78 182 96 66 18 121 19 174 5z m-515 -97 c0 -13 -52 -57 -102 -85 -25 -15 -69
-53 -98 -84 l-51 -58 6 50 c14 107 41 143 129 171 47 14 116 18 116 6z m-365
-329 c-21 -96 -82 -260 -130 -351 -19 -37 -60 -98 -90 -136 -31 -39 -55 -79
-55 -92 0 -13 -7 -41 -15 -61 -52 -131 -105 -394 -105 -519 0 -77 45 -327 74
-409 13 -39 40 -104 59 -145 68 -151 95 -245 107 -380 8 -100 7 -112 -15 -175
-27 -78 -85 -166 -129 -198 l-30 -22 23 38 c52 84 64 122 74 224 8 85 7 116
-7 189 -10 49 -24 105 -32 125 -14 35 -56 65 -74 54 -5 -3 -14 21 -20 52 -14
69 -29 127 -65 248 -53 178 -65 250 -65 412 0 190 26 377 75 532 19 62 35 124
35 138 0 22 3 24 30 18 26 -6 35 -2 61 27 43 46 110 154 214 350 50 92 91 165
94 163 2 -2 -5 -39 -14 -82z m-378 -296 c-8 -24 -31 -67 -51 -95 -20 -29 -36
-55 -36 -59 0 -7 -16 -29 -60 -80 -6 -7 -37 -60 -70 -119 -77 -139 -146 -327
-180 -489 -7 -33 -16 -71 -20 -85 -8 -23 -9 -22 -10 10 -9 218 5 309 62 404
23 39 45 73 48 76 3 3 20 29 38 57 17 29 58 87 89 128 32 42 73 97 90 123 18
26 44 62 58 81 13 19 30 49 37 67 18 50 23 32 5 -19z m648 -223 c12 -32 18
-81 19 -144 1 -133 -23 -180 -146 -290 -104 -92 -131 -127 -159 -208 -65 -186
-13 -323 136 -364 24 -6 22 -7 -12 -3 -127 15 -253 136 -253 242 1 79 82 203
182 276 46 34 93 100 120 170 11 28 26 63 33 77 38 74 47 192 20 290 -29 107
-29 107 8 54 19 -27 43 -72 52 -100z m1500 -2244 c25 -28 67 -198 67 -274 0
-38 -59 -182 -90 -218 -13 -16 -18 -12 -63 42 -74 88 -109 184 -109 300 0 65
12 97 56 149 25 29 113 30 139 1z m-1150 -545 c65 -17 150 -55 204 -92 18 -12
60 -32 91 -44 35 -13 62 -29 68 -42 9 -19 11 -20 11 -3 1 13 6 16 19 11 9 -4
27 -10 38 -12 20 -4 21 -9 12 -45 -13 -60 -31 -89 -79 -128 -34 -27 -59 -37
-119 -47 -100 -17 -212 -52 -241 -74 -20 -16 -21 -19 -6 -19 10 0 34 7 54 15
55 23 148 20 174 -6 l21 -21 -27 -28 c-29 -31 -106 -71 -191 -100 l-52 -18
-51 38 c-85 64 -178 102 -281 116 -54 6 -45 -6 23 -31 33 -12 62 -34 93 -69
24 -28 44 -54 44 -58 0 -18 -61 -18 -97 1 -47 24 -134 110 -159 156 -10 19
-24 35 -31 35 -16 0 -17 -12 -3 -26 12 -12 26 -114 16 -114 -10 0 -31 22 -44
47 -7 12 -12 48 -13 80 -1 123 -30 183 -35 75 -7 -121 -37 -77 -36 51 1 77 6
99 31 153 52 111 149 189 266 214 57 13 229 4 300 -15z"/>
<path d="M2270 4351 c0 -5 -2 -16 -5 -23 -4 -9 7 -20 27 -30 74 -35 86 -125
26 -193 -33 -38 -52 -43 -79 -19 -10 9 -20 11 -23 6 -17 -28 92 -48 118 -22 5
5 20 -3 36 -20 36 -38 75 -48 100 -25 27 24 27 50 1 34 -43 -27 -83 28 -63 85
31 84 5 144 -79 186 -32 17 -59 26 -59 21z"/>
<path d="M2070 3158 c-14 -23 -54 -72 -89 -110 l-64 -68 17 -58 c9 -32 16 -77
16 -100 0 -51 -25 -128 -51 -155 -10 -12 -19 -24 -19 -29 0 -17 19 -6 51 30
109 122 157 191 180 257 21 62 15 276 -9 275 -4 0 -18 -19 -32 -42z"/>
<path d="M1858 2928 c-20 -18 -60 -53 -88 -77 l-52 -44 7 -56 c11 -94 -30
-271 -62 -271 -8 0 -6 17 8 57 11 32 23 97 27 145 10 113 2 114 -97 11 l-75
-78 0 -172 c-1 -114 3 -173 9 -173 10 0 61 81 100 158 9 19 19 31 22 28 10
-10 77 36 120 83 63 68 114 146 135 204 23 69 24 168 1 196 l-18 22 -37 -33z"/>
<path d="M318 2242 c-42 -5 -114 -75 -132 -129 -19 -55 -19 -66 -5 -115 16
-61 34 -47 34 26 0 60 3 68 33 99 52 53 99 71 152 57 23 -6 54 -23 67 -36 33
-33 41 -23 18 20 -27 50 -104 86 -167 78z"/>
<path d="M2193 1303 c20 -36 40 -90 56 -156 11 -44 31 -96 45 -117 14 -21 28
-50 32 -64 10 -39 27 -32 20 8 -4 20 -2 37 4 41 17 10 11 97 -11 163 -23 69
-84 132 -126 132 -13 0 -22 -3 -20 -7z"/>
</g>
</svg>
