<?xml version="1.0" standalone="no"?>
<!DOCTYPE svg PUBLIC "-//W3C//DTD SVG 20010904//EN"
 "http://www.w3.org/TR/2001/REC-SVG-20010904/DTD/svg10.dtd">
<svg version="1.0" xmlns="http://www.w3.org/2000/svg"
 width="1050.000000pt" height="1050.000000pt" viewBox="0 0 1050.000000 1050.000000"
 preserveAspectRatio="xMidYMid meet">
<metadata>
Created by potrace 1.15, written by Peter Selinger 2001-2017
</metadata>
<g transform="translate(0.000000,1050.000000) scale(0.100000,-0.100000)"
fill="#000000" stroke="none">
<path d="M7470 9404 c-318 -21 -663 -122 -894 -262 -37 -23 -71 -42 -76 -42
-4 0 -20 18 -35 40 -46 67 -159 166 -227 199 -78 39 -160 53 -233 41 -68 -11
-82 -19 -132 -73 -60 -64 -85 -121 -91 -198 -6 -84 15 -148 71 -224 73 -99
208 -146 320 -110 47 15 63 15 104 6 71 -17 149 -65 183 -113 28 -38 30 -47
30 -130 0 -111 21 -207 61 -276 27 -49 38 -57 115 -94 87 -42 187 -60 248 -44
52 13 104 73 127 145 47 152 33 269 -41 354 -40 45 -145 107 -181 107 -27 0
-33 19 -12 42 104 117 406 258 550 258 205 0 455 -93 658 -245 283 -210 563
-599 724 -1002 147 -371 173 -758 75 -1122 -83 -308 -278 -635 -519 -871 -74
-73 -77 -74 -92 -55 -29 37 -64 123 -80 197 -20 93 -23 408 -6 668 20 297 0
498 -63 622 -90 177 -299 250 -516 182 -396 -125 -815 -454 -1086 -851 l-56
-83 -57 0 c-109 0 -315 59 -544 155 -79 34 -102 39 -191 43 -74 3 -123 0 -180
-13 -79 -17 -213 -69 -254 -98 -22 -15 -25 -13 -99 51 -254 223 -729 565 -881
634 -81 37 -202 72 -323 95 -142 26 -495 24 -687 -6 -188 -28 -367 -73 -494
-122 -396 -153 -753 -504 -974 -959 -36 -74 -67 -137 -69 -139 -8 -10 -68 59
-119 135 -99 149 -221 422 -335 754 l-54 155 -5 -115 c-12 -240 14 -513 67
-725 46 -184 143 -412 227 -529 l33 -47 -29 -92 c-125 -394 -189 -780 -189
-1132 0 -206 11 -329 41 -467 l19 -89 -69 -132 c-126 -240 -197 -458 -246
-747 -24 -148 -30 -466 -10 -635 16 -134 52 -319 75 -377 31 -82 446 -196 861
-238 175 -17 157 -3 163 -127 5 -114 29 -203 71 -265 12 -18 63 -61 113 -94
212 -142 491 -219 833 -231 211 -7 312 5 400 49 127 65 182 180 183 381 l0
117 27 0 c61 0 223 34 331 70 112 37 241 96 321 146 21 13 39 24 40 24 2 0 3
-53 3 -118 1 -165 8 -197 64 -284 56 -86 104 -127 193 -167 134 -60 301 -79
537 -61 252 19 386 66 491 170 104 102 132 207 134 495 0 149 -4 200 -22 293
-36 177 -107 359 -190 481 l-29 43 38 78 38 78 43 -9 c72 -14 289 -10 384 6
49 9 127 29 173 44 l85 29 21 -27 c58 -74 201 -235 245 -274 28 -25 74 -57
102 -71 96 -48 223 -29 291 42 l26 27 224 -110 c247 -123 343 -158 492 -181
220 -34 415 10 630 142 225 139 326 228 420 369 97 145 139 263 185 515 27
147 37 433 21 580 -22 194 -84 428 -146 550 l-23 44 72 96 c234 309 457 687
600 1015 62 142 149 403 175 528 78 361 65 794 -35 1208 -28 119 -88 320 -146
494 -186 559 -596 1037 -1131 1320 -121 64 -294 113 -488 139 -123 16 -311 25
-399 20z m401 -93 c358 -72 747 -307 1025 -618 422 -473 662 -1050 729 -1753
3 -36 1 -134 -5 -219 -53 -745 -379 -1496 -917 -2110 -90 -102 -142 -147 -348
-301 -460 -342 -887 -565 -1168 -610 -151 -25 -416 3 -682 70 -252 63 -483
161 -665 280 -111 73 -210 149 -210 161 0 17 76 93 157 156 137 107 154 147
52 123 -38 -9 -70 -28 -118 -68 -101 -84 -196 -178 -276 -274 -92 -109 -123
-162 -131 -221 -6 -43 -5 -47 14 -47 30 0 91 56 86 78 -7 24 45 102 93 140
l41 32 75 -152 c161 -328 354 -569 548 -682 35 -20 71 -42 79 -47 43 -27 91
-41 169 -49 178 -19 394 -102 477 -185 73 -73 106 -224 64 -292 -30 -50 -72
-66 -151 -61 -98 7 -167 44 -259 137 -58 58 -87 98 -124 171 -27 52 -49 96
-50 97 -1 1 -41 -11 -89 -28 -49 -16 -127 -36 -174 -44 -111 -19 -324 -19
-438 1 -107 18 -473 138 -589 193 -276 129 -455 315 -525 545 -18 58 -21 94
-21 238 0 142 -3 175 -17 199 -22 36 -41 44 -64 23 -66 -60 -33 -404 60 -622
44 -104 94 -176 181 -262 60 -60 96 -85 169 -120 l92 -45 -5 -100 c-19 -358
-151 -669 -372 -875 -89 -83 -308 -229 -427 -285 -318 -150 -630 -174 -953
-72 -60 19 -143 42 -184 52 -102 23 -227 75 -314 129 -346 216 -477 602 -367
1081 38 165 106 418 176 650 118 391 162 728 136 1029 -18 204 -44 315 -130
556 -38 106 -54 254 -41 380 31 293 187 486 470 581 91 30 100 31 210 26 421
-22 869 -245 1207 -602 56 -58 118 -135 139 -172 72 -123 106 -120 127 13 12
71 19 87 70 158 102 140 193 314 248 474 42 124 126 225 261 314 237 158 350
162 678 25 118 -50 238 -83 366 -102 263 -38 386 -71 539 -145 67 -32 97 -55
187 -147 118 -119 174 -187 255 -311 110 -166 182 -359 196 -520 l5 -64 -46
-20 c-118 -52 -244 -62 -353 -28 -69 21 -154 80 -210 144 -33 39 -352 321
-484 430 -60 48 -75 56 -105 54 -73 -6 -44 -65 69 -140 142 -95 260 -198 323
-282 79 -105 209 -232 282 -275 77 -46 187 -71 311 -71 157 0 288 43 390 129
l50 42 17 -39 c10 -22 24 -45 32 -51 21 -18 37 18 44 96 l5 63 76 37 c111 55
243 146 295 204 35 39 46 46 46 32 0 -35 21 -83 36 -83 18 0 37 43 60 133 15
63 20 70 128 179 62 62 146 158 188 214 l74 101 40 -33 c41 -35 71 -43 80 -21
3 8 -6 49 -20 92 -24 77 -25 79 -7 114 40 78 113 276 136 363 l23 93 81 -4
c67 -3 82 0 87 13 7 19 -20 54 -82 105 l-47 40 -2 208 c-2 194 -10 276 -40
379 -6 18 2 25 49 49 100 51 99 78 -5 81 -59 1 -78 11 -79 39 0 6 15 16 33 23
18 6 42 19 52 27 19 14 19 16 2 29 -10 8 -42 17 -71 20 l-52 7 -23 72 c-50
154 -170 393 -282 558 -38 56 -38 57 -18 75 28 25 61 82 55 93 -7 11 -47 1
-94 -23 l-32 -16 -37 42 c-20 24 -85 92 -144 152 l-108 109 25 36 c47 69 28
92 -56 66 l-58 -18 -104 62 c-57 34 -151 85 -210 114 -101 49 -108 54 -114 87
-10 58 -15 71 -27 67 -7 -2 -16 -18 -22 -35 -8 -28 -13 -32 -45 -32 -33 0 -37
3 -50 42 -20 55 -36 58 -57 11 -23 -49 -24 -49 -95 -57 -135 -16 -344 -96
-475 -183 -32 -21 -91 -69 -130 -107 -56 -52 -73 -75 -73 -96 0 -35 25 -56 75
-64 99 -17 211 -109 235 -194 25 -90 1 -223 -50 -274 -24 -23 -37 -28 -80 -28
-85 0 -214 81 -252 158 -18 38 -20 53 -13 115 12 113 9 150 -13 200 -52 117
-232 226 -377 227 -30 0 -44 -6 -60 -24 -40 -49 -82 -39 -168 44 -149 141
-172 251 -74 357 l40 43 71 0 c83 0 185 -26 248 -63 54 -31 135 -118 163 -173
46 -90 64 -93 155 -24 180 138 553 272 845 304 91 10 362 -4 456 -23z m-50
-1989 c121 -59 194 -188 219 -386 8 -63 7 -121 -4 -237 -49 -517 -16 -879 91
-1000 12 -15 4 -27 -83 -113 -158 -157 -342 -282 -446 -301 l-35 -7 -7 44
c-12 74 -82 271 -134 374 -80 159 -165 278 -287 399 -160 161 -310 255 -525
330 -57 19 -106 37 -108 39 -5 6 147 192 244 298 266 291 563 501 804 567 99
27 207 25 271 -7z m-3968 -71 c138 -28 265 -70 368 -121 99 -49 150 -84 259
-176 81 -67 499 -400 555 -441 l26 -19 -75 -77 c-86 -88 -131 -171 -171 -311
-39 -134 -99 -247 -199 -372 l-41 -51 -85 77 c-418 379 -830 589 -1254 641
-181 22 -391 -3 -464 -55 -127 -90 -266 -269 -328 -421 -57 -138 -69 -208 -69
-400 0 -197 11 -255 65 -371 53 -112 69 -172 80 -294 6 -58 14 -136 20 -175
21 -157 5 -396 -45 -646 -33 -163 -63 -273 -135 -499 -32 -102 -68 -222 -80
-267 -27 -111 -60 -305 -60 -359 0 -24 -4 -44 -9 -44 -14 0 -132 140 -189 224
-128 186 -206 389 -254 656 -17 99 -17 477 0 585 7 44 22 117 32 162 17 70 18
89 7 120 -14 44 -40 53 -84 29 -26 -13 -32 -25 -51 -108 -52 -228 -56 -272
-57 -533 0 -278 13 -373 76 -566 88 -266 273 -546 452 -684 37 -29 68 -61 72
-75 4 -14 10 -79 15 -144 l7 -119 -42 -63 c-38 -56 -84 -155 -86 -187 0 -7 -5
2 -11 18 -17 48 -58 96 -97 112 -34 15 -107 14 -156 -2 -17 -5 -22 1 -32 46
-27 111 -103 177 -192 166 -37 -4 -106 -29 -152 -54 -3 -2 -22 23 -42 56 -67
107 -143 116 -233 25 -25 -24 -62 -72 -83 -105 l-39 -62 -9 69 c-4 38 -8 159
-7 269 0 223 17 350 79 590 45 175 175 525 195 525 4 0 12 -25 19 -55 13 -57
46 -95 81 -95 41 0 39 57 -4 185 -115 333 -122 770 -21 1255 78 377 105 471
192 669 143 329 432 810 588 979 257 277 613 449 1040 501 50 6 101 13 115 15
14 3 111 3 215 1 145 -2 216 -8 298 -24z m-2566 -761 c56 -113 177 -296 262
-398 l62 -72 -34 -44 c-18 -24 -44 -64 -57 -90 -14 -25 -28 -46 -32 -46 -9 0
-92 144 -129 225 -75 165 -134 361 -164 545 -22 139 -18 157 16 60 16 -47 50
-128 76 -180z m7463 -2074 c46 -103 98 -274 122 -403 26 -142 32 -447 10 -573
-52 -297 -134 -469 -310 -652 -133 -138 -279 -228 -453 -279 -104 -30 -337
-38 -468 -15 -167 29 -342 102 -497 207 -81 54 -86 62 -104 159 -20 113 -86
230 -152 270 l-28 17 56 48 c85 73 206 217 260 310 l49 83 86 21 c366 90 835
380 1363 843 17 15 32 27 34 28 2 0 16 -29 32 -64z m-1610 -834 c0 -16 -118
-189 -163 -238 -25 -28 -82 -79 -127 -113 l-81 -61 -25 25 -26 26 80 84 c69
73 115 134 185 247 9 14 27 29 39 31 41 8 118 7 118 -1z m-1985 -542 c124 -51
268 -97 333 -106 63 -8 64 -12 18 -116 -81 -186 -272 -414 -451 -540 -102 -71
-269 -160 -374 -198 -45 -17 -84 -30 -87 -30 -3 0 20 21 51 48 120 100 256
309 315 482 39 115 70 272 77 388 3 61 10 112 15 112 4 0 51 -18 103 -40z
m405 -455 c110 -160 170 -372 170 -602 l0 -114 -30 16 c-62 32 -124 14 -182
-55 -33 -37 -36 -39 -69 -30 -50 15 -146 12 -179 -5 -35 -18 -68 -63 -76 -103
l-6 -30 -62 48 c-73 54 -113 66 -161 46 -64 -27 -112 -142 -130 -310 l-7 -68
-45 6 c-107 14 -224 96 -272 191 -34 67 -51 153 -51 257 0 93 1 98 23 102 12
2 62 12 110 22 159 31 359 125 523 247 94 70 266 245 339 345 33 45 63 82 67
82 4 0 21 -20 38 -45z m-4190 -173 c49 -49 63 -155 45 -331 l-7 -74 -68 5
c-77 6 -159 44 -192 91 -25 34 -21 83 12 192 30 94 79 145 140 145 32 0 48 -6
70 -28z m319 -16 c36 -38 52 -109 52 -232 1 -161 -7 -203 -40 -215 -38 -15
-123 -13 -162 4 -61 25 -64 34 -50 157 6 61 21 139 32 174 36 118 114 170 168
112z m722 -303 c199 -257 560 -418 1022 -455 l147 -12 0 -60 0 -59 -22 20
c-34 31 -63 43 -102 43 -50 0 -80 -14 -130 -60 l-44 -41 -30 54 c-51 90 -114
115 -198 78 -27 -12 -58 -31 -70 -42 l-22 -20 -42 60 c-48 69 -106 104 -154
94 -66 -13 -158 -149 -211 -312 l-17 -53 -42 6 c-153 24 -259 107 -308 243
-51 141 -12 425 92 655 l21 48 35 -67 c19 -37 53 -91 75 -120z m-430 127 c37
-20 52 -77 53 -200 l1 -115 -69 -3 c-72 -3 -114 8 -139 36 -30 35 20 245 66
277 25 17 60 19 88 5z m3695 -432 c35 -31 36 -33 32 -94 -5 -78 -49 -169 -97
-201 -19 -13 -38 -23 -44 -23 -13 0 -3 256 12 295 11 29 36 55 53 55 4 0 24
-14 44 -32z m-261 -52 c33 -33 55 -114 62 -226 5 -87 4 -97 -16 -122 -33 -42
-80 -53 -145 -34 l-54 16 -7 87 c-9 126 10 243 48 291 17 22 85 15 112 -12z
m-346 -81 c39 -33 71 -120 78 -210 5 -62 3 -72 -15 -89 -30 -26 -99 -31 -165
-12 -55 16 -56 17 -62 59 -7 48 9 187 26 220 33 64 85 76 138 32z m-2224 -63
c41 -30 56 -114 43 -241 -11 -111 -13 -117 -50 -130 -67 -24 -134 -9 -196 44
-29 24 -33 33 -28 59 12 59 94 212 131 245 34 30 77 40 100 23z m328 -101 c30
-33 36 -49 42 -103 3 -34 3 -92 -2 -127 -8 -62 -9 -65 -43 -77 -19 -7 -53 -13
-75 -13 -41 -1 -117 28 -130 49 -9 15 22 141 52 210 48 110 95 128 156 61z
m342 -43 c27 -26 37 -44 41 -80 6 -44 4 -49 -27 -79 -44 -40 -131 -81 -166
-77 -27 3 -28 5 -27 53 2 61 36 160 66 192 31 33 71 30 113 -9z"/>
<path d="M6645 6141 c-96 -43 -154 -154 -141 -268 20 -173 199 -449 337 -518
98 -50 160 -39 251 46 54 50 78 100 78 160 0 135 -116 374 -241 497 -98 96
-194 124 -284 83z m81 -366 c87 -41 180 -23 239 47 25 29 26 30 40 12 31 -42
76 -142 86 -194 27 -129 -58 -240 -172 -227 -166 20 -296 192 -332 440 l-6 38
54 -49 c29 -27 70 -57 91 -67z"/>
<path d="M5600 5887 c-49 -16 -133 -102 -148 -153 -28 -95 -7 -286 48 -423 11
-30 19 -55 17 -57 -1 -2 -25 3 -52 11 -88 27 -188 14 -223 -28 -22 -26 23 -46
129 -58 248 -26 427 -112 570 -269 75 -83 100 -100 124 -80 24 20 18 62 -16
114 l-30 49 33 27 c19 15 46 51 62 80 l28 52 -5 152 c-5 162 -19 231 -65 326
-32 65 -119 162 -177 195 -94 56 -229 84 -295 62z m7 -243 c50 -101 115 -184
164 -209 69 -36 139 -10 200 76 19 26 38 47 43 45 16 -4 64 -139 75 -208 19
-114 -11 -208 -88 -282 l-41 -40 -22 21 c-42 38 -142 96 -223 129 l-80 33 -37
89 c-85 204 -113 377 -68 422 11 11 22 20 25 20 2 0 26 -43 52 -96z"/>
</g>
</svg>
