<?xml version="1.0" standalone="no"?>
<!DOCTYPE svg PUBLIC "-//W3C//DTD SVG 20010904//EN"
 "http://www.w3.org/TR/2001/REC-SVG-20010904/DTD/svg10.dtd">
<svg version="1.0" xmlns="http://www.w3.org/2000/svg"
 width="1600.000000pt" height="1600.000000pt" viewBox="0 0 1600.000000 1600.000000"
 preserveAspectRatio="xMidYMid meet">
<metadata>
Created by potrace 1.15, written by Peter Selinger 2001-2017
</metadata>
<g transform="translate(0.000000,1600.000000) scale(0.100000,-0.100000)"
fill="#000000" stroke="none">
<path d="M12281 12527 c-7 -10 -10 -83 -9 -231 1 -152 -2 -220 -10 -228 -15
-15 -9 -22 -87 107 -36 61 -71 110 -77 110 -5 0 -23 -43 -40 -95 -70 -223 -92
-287 -109 -320 -10 -19 -34 -90 -54 -158 l-36 -124 29 -81 c37 -101 84 -204
117 -257 57 -91 13 -66 -136 77 -53 51 -102 107 -109 123 -7 17 -16 30 -20 30
-6 0 -29 -84 -91 -321 -5 -20 -9 -49 -9 -65 0 -16 -13 -67 -30 -114 -16 -47
-29 -98 -30 -115 0 -23 32 -72 143 -220 333 -445 397 -539 378 -558 -8 -8 -19
-3 -38 15 -54 49 -151 107 -250 149 l-100 42 -26 68 c-15 38 -27 73 -27 78 0
5 -22 57 -50 115 -27 58 -50 108 -50 112 0 3 -12 31 -26 62 -14 31 -33 75 -42
97 -31 77 -187 364 -258 472 -19 28 -34 56 -34 61 0 5 -10 20 -22 33 -13 14
-38 45 -57 69 -19 25 -46 58 -60 73 -48 52 -234 217 -246 217 -6 0 -21 -14
-34 -30 -28 -38 -24 -70 29 -225 10 -27 23 -88 30 -135 7 -47 17 -101 22 -120
5 -19 14 -118 19 -220 5 -102 12 -222 15 -267 6 -79 16 -104 28 -65 3 9 4 2 2
-15 -2 -29 1 -34 31 -44 19 -6 37 -18 40 -26 3 -8 11 -12 18 -9 19 7 50 -30
34 -40 -7 -4 -15 -2 -17 4 -7 21 -22 2 -22 -28 0 -38 -12 -44 -54 -26 -19 8
-37 12 -39 9 -3 -3 -15 -2 -26 2 -22 7 -30 45 -10 45 6 0 2 8 -9 18 -12 9 -61
96 -110 192 -94 185 -225 429 -250 468 -9 13 -23 38 -32 55 -10 19 -25 32 -36
32 -22 0 -22 12 -11 -290 4 -110 11 -215 16 -233 6 -19 8 -47 4 -63 -8 -43 2
-71 53 -138 26 -34 43 -65 39 -69 -4 -4 -30 18 -57 48 l-50 55 4 -168 c2 -92
1 -170 -4 -173 -4 -3 -5 -16 -2 -30 4 -14 2 -24 -5 -24 -6 0 -12 12 -13 28 -3
46 -4 56 -11 87 -9 35 -44 132 -58 157 -5 10 -9 27 -9 38 0 11 -4 20 -10 20
-5 0 -10 7 -10 16 0 9 -24 66 -54 127 -29 62 -57 123 -61 137 -4 13 -23 47
-41 73 -19 27 -34 55 -34 63 0 8 -4 14 -10 14 -5 0 -10 8 -10 18 0 10 -11 29
-25 42 -14 13 -25 27 -25 31 0 4 -16 25 -36 46 -19 21 -46 55 -60 75 -22 35
-51 58 -72 58 -5 0 -8 -19 -6 -42 2 -24 5 -185 6 -358 1 -297 0 -320 -21 -399
-25 -96 -38 -124 -87 -188 -19 -24 -34 -49 -34 -54 0 -6 -9 -28 -20 -50 -10
-23 -22 -62 -26 -87 -3 -26 -10 -51 -14 -57 -4 -5 -10 -26 -13 -45 -3 -19 -11
-55 -18 -80 -16 -58 -16 -184 -1 -335 15 -150 18 -163 38 -186 31 -34 -4 -20
-44 19 -22 20 -64 55 -93 76 -30 22 -74 63 -99 92 -25 29 -48 53 -52 53 -12 2
-28 -62 -28 -115 0 -31 -8 -67 -19 -91 -11 -21 -32 -63 -47 -93 -15 -30 -34
-68 -41 -85 -8 -16 -23 -47 -33 -67 -13 -26 -15 -38 -7 -41 7 -3 4 -8 -8 -13
-35 -14 -65 -55 -65 -88 0 -17 5 -69 10 -116 13 -112 13 -687 -1 -770 -5 -36
-14 -117 -19 -180 -10 -118 -21 -213 -38 -335 -32 -225 -43 -261 -96 -318 -14
-15 -29 -40 -33 -55 -3 -15 -16 -43 -28 -62 -43 -71 -74 -149 -78 -200 -2 -28
-9 -56 -16 -63 -6 -6 -11 -24 -11 -40 0 -45 -21 -115 -36 -121 -7 -3 -27 8
-43 24 -26 26 -30 28 -42 14 -10 -12 -10 -20 -1 -35 7 -10 12 -25 12 -33 0
-12 7 -13 32 -5 18 5 34 9 35 9 9 0 1 -149 -9 -184 -17 -61 -27 -70 -47 -44
-11 13 -23 18 -30 14 -9 -6 -7 -13 8 -27 12 -11 21 -23 21 -27 0 -13 -23 -32
-38 -32 -7 0 -27 -13 -44 -30 -21 -22 -39 -30 -64 -30 -25 0 -41 -7 -58 -26
-12 -15 -35 -28 -51 -30 l-28 -3 24 17 c13 9 27 17 31 17 20 0 15 14 -7 19
-14 4 -25 13 -25 21 0 19 -11 19 -36 0 -16 -12 -17 -16 -4 -24 12 -9 12 -12
-1 -28 -23 -27 -13 -53 21 -53 16 0 32 5 35 10 8 14 144 13 186 -1 19 -6 51
-25 72 -41 l38 -30 67 43 c37 24 75 49 85 57 9 9 19 13 22 10 8 -7 -105 -88
-155 -110 -73 -33 -75 -34 -85 -54 -5 -11 -17 -18 -26 -16 -18 3 -39 -19 -68
-73 -30 -57 -11 -67 39 -21 23 21 60 45 84 55 23 10 61 28 84 39 23 11 50 18
59 16 10 -2 44 -8 76 -14 38 -8 57 -16 57 -26 0 -11 -7 -13 -26 -8 -25 6 -26
5 -19 -25 5 -23 3 -31 -7 -31 -8 0 -23 -7 -34 -15 -15 -12 -16 -16 -5 -24 11
-7 10 -11 -8 -20 -33 -18 -25 -31 19 -31 30 0 42 5 46 18 32 99 106 188 196
233 67 34 93 37 85 12 -2 -10 -6 -24 -8 -32 -2 -7 1 -16 8 -18 7 -3 25 23 43
64 36 80 67 114 135 152 71 41 120 54 168 47 71 -11 72 -15 47 -90 -12 -37
-20 -70 -17 -73 11 -10 27 8 27 30 0 34 23 91 55 137 29 42 95 83 178 110 47
15 140 5 162 -16 16 -17 35 -11 35 11 0 25 90 113 128 126 20 6 42 15 47 19 6
4 30 10 54 14 51 8 135 -19 127 -40 -3 -7 2 -14 11 -16 12 -2 10 -8 -9 -28
-14 -14 -35 -34 -48 -44 l-24 -19 23 -18 c31 -25 36 -24 54 14 31 64 100 143
156 179 52 32 125 38 184 13 46 -19 52 -30 33 -57 -18 -25 -21 -58 -7 -58 5 0
28 34 50 75 23 41 46 75 51 75 6 0 10 7 10 16 0 13 -5 12 -30 -6 -16 -12 -30
-17 -30 -12 0 6 -13 15 -30 21 -28 9 -42 31 -20 31 6 0 10 5 10 11 0 6 -6 9
-14 6 -33 -13 -89 -19 -83 -10 4 6 -5 15 -19 22 -22 9 -24 14 -14 26 14 17 51
20 67 4 7 -7 16 -3 31 15 12 16 30 26 45 26 29 0 44 15 49 50 2 19 10 26 30
28 15 2 29 11 32 20 3 9 18 30 33 47 16 16 27 31 26 32 -2 2 -3 13 -3 26 1 18
3 17 15 -10 8 -18 18 -33 22 -33 16 1 43 28 43 43 0 13 7 15 32 10 24 -5 29
-3 23 7 -5 8 -21 10 -47 7 -46 -6 -63 15 -32 38 20 16 81 17 101 2 7 -5 22 -7
35 -5 17 2 22 9 21 26 -2 19 2 22 37 22 21 0 41 -4 45 -9 9 -16 54 -5 80 19
28 27 25 66 -8 89 -19 13 -18 14 7 36 30 26 33 43 10 59 -20 15 -9 67 17 73
23 6 34 33 13 33 -23 0 -11 24 14 28 31 5 55 41 39 60 -10 13 -8 14 13 8 57
-17 80 -32 81 -51 1 -11 5 -4 8 15 7 33 2 67 -6 43 -2 -6 -13 -9 -24 -6 -18 5
-19 6 -2 19 10 7 25 14 33 14 8 0 20 8 27 19 11 17 10 17 -25 4 -20 -7 -45
-16 -54 -19 -10 -4 -15 -10 -12 -15 3 -5 -6 -9 -20 -9 -14 0 -28 -4 -31 -10
-3 -5 -15 -10 -26 -10 -10 0 -19 -5 -19 -12 0 -6 -3 -9 -6 -6 -3 4 -29 -6 -59
-22 -29 -15 -68 -33 -88 -39 -19 -7 -41 -19 -47 -27 -7 -7 -21 -14 -31 -14
-11 0 -19 -4 -19 -10 0 -5 -6 -10 -13 -10 -7 0 -32 -9 -55 -20 -23 -11 -56
-23 -72 -27 -25 -5 -29 -3 -24 11 3 9 11 16 16 16 5 0 27 15 48 33 42 35 98
65 174 92 27 10 57 26 67 36 11 11 24 19 29 19 6 0 18 4 28 9 31 17 143 61
153 61 9 0 59 48 59 56 0 8 -36 -10 -47 -23 -6 -8 -19 -13 -30 -11 -11 2 -17
-2 -15 -11 2 -9 -4 -12 -18 -8 -11 3 -20 1 -20 -4 0 -6 -7 -6 -18 0 -14 8 -22
4 -37 -15 -18 -24 -45 -33 -45 -14 0 6 5 10 12 10 6 0 8 3 5 6 -4 4 -13 1 -22
-6 -13 -10 -15 -9 -15 9 0 12 6 21 14 21 26 0 30 23 7 41 -18 15 -27 16 -43 8
-29 -15 -101 -22 -92 -8 3 6 -3 13 -15 16 -12 3 -21 9 -21 14 0 5 -7 9 -15 9
-8 0 -15 5 -15 11 0 8 -5 8 -15 -1 -13 -11 -19 -9 -35 10 -11 13 -20 28 -19
34 0 6 3 5 6 -2 4 -10 8 -10 19 -1 11 9 18 9 29 -1 8 -7 16 -9 17 -4 3 21 6
31 19 62 13 31 15 32 74 32 33 0 67 5 75 10 13 8 12 10 -4 10 -15 0 -16 3 -6
15 9 11 17 12 33 4 16 -9 23 -8 34 7 10 14 16 15 25 6 15 -15 58 -16 58 -2 0
6 -13 10 -29 10 -24 0 -28 3 -24 20 6 21 -20 29 -32 10 -4 -6 -12 -7 -18 -3
-7 4 -6 0 2 -10 12 -15 11 -17 -2 -17 -9 0 -22 9 -30 20 -13 19 -18 20 -61 9
-26 -6 -50 -9 -53 -5 -4 3 3 6 15 6 12 0 22 5 22 10 0 6 6 10 14 10 22 0 118
32 153 51 49 28 97 33 116 15 8 -9 20 -16 25 -16 6 0 12 -5 14 -12 6 -16 48
22 48 44 0 10 -4 18 -10 18 -5 0 -10 5 -10 10 0 6 9 10 19 10 11 0 23 5 26 10
8 13 85 13 85 0 0 -16 36 -12 51 6 12 15 11 16 -11 10 -21 -6 -22 -5 -8 4 10
6 42 13 70 15 29 2 43 2 31 -1 -13 -3 -23 -9 -23 -14 0 -5 -8 -10 -17 -12 -19
-3 -25 -48 -9 -60 6 -3 27 11 48 33 21 21 42 39 48 39 5 0 10 -19 11 -42 0
-33 2 -38 9 -22 4 11 7 36 5 55 -1 19 1 39 5 44 4 6 13 36 20 67 16 79 30 83
30 8 0 -40 -4 -62 -13 -66 -13 -5 -21 -44 -9 -44 4 0 13 9 20 21 9 14 20 19
33 16 12 -3 22 0 26 9 3 8 15 14 26 14 20 0 20 0 1 -15 -10 -8 -14 -15 -9 -15
6 0 3 -5 -5 -10 -8 -5 -25 -7 -37 -3 -19 4 -23 1 -23 -16 0 -13 -10 -26 -26
-33 -25 -12 -25 -12 -4 -20 17 -6 19 -11 10 -27 -5 -11 -7 -27 -4 -35 8 -20
43 -21 50 -1 7 17 40 20 50 4 3 -6 -8 -23 -25 -38 -29 -25 -30 -28 -16 -46 14
-20 14 -19 15 4 0 16 4 21 14 18 16 -6 26 13 26 49 0 13 5 24 10 24 6 0 10 -9
10 -20 0 -11 3 -19 8 -19 4 1 15 1 25 0 21 -1 23 -21 2 -21 -8 0 -15 -5 -15
-12 0 -6 -3 -8 -7 -5 -10 11 -33 -13 -33 -35 0 -21 32 -38 38 -20 2 7 20 12
40 11 21 0 31 -3 25 -6 -20 -7 -15 -33 5 -33 10 0 23 -5 29 -11 18 -18 104 -2
110 21 5 20 33 36 33 20 0 -6 8 -10 18 -9 10 0 12 3 4 6 -17 7 -5 23 19 23 21
0 27 -20 7 -21 -7 0 -4 -4 7 -8 24 -9 60 14 70 44 l7 20 5 -20 c11 -43 38 -58
48 -26 6 20 29 30 87 37 20 2 48 8 63 14 19 7 32 6 49 -5 12 -8 26 -12 29 -8
4 3 7 1 7 -5 0 -8 -17 -12 -45 -12 -26 0 -65 -9 -87 -20 -23 -11 -53 -20 -66
-20 -28 0 -122 -41 -122 -53 0 -5 -5 -5 -10 -2 -6 4 -8 10 -5 15 6 9 -18 3
-98 -25 -27 -9 -55 -14 -62 -11 -7 2 -21 -4 -31 -15 -11 -12 -29 -19 -48 -17
-35 2 -106 -19 -106 -32 0 -5 6 -11 13 -13 7 -3 5 -6 -5 -6 -23 -1 -25 -66 -3
-87 17 -17 21 -74 5 -74 -5 0 -14 9 -20 20 -6 11 -20 20 -30 20 -11 0 -20 6
-20 14 0 10 -11 13 -37 12 -21 -1 -41 2 -45 8 -4 6 -15 1 -27 -13 -25 -29 -25
-28 -3 -28 35 0 40 -3 35 -23 -4 -14 1 -21 21 -26 14 -3 30 -12 37 -20 6 -8
22 -14 36 -14 13 0 26 -7 29 -15 4 -8 15 -15 25 -15 10 0 19 -7 19 -15 0 -21
-59 -20 -89 1 -22 16 -22 16 -9 -7 7 -12 21 -31 31 -41 9 -10 17 -22 17 -28 0
-5 13 -10 29 -10 17 0 33 -4 36 -10 3 -5 17 -10 30 -10 13 0 25 -5 27 -12 3
-9 15 -8 46 4 33 13 42 14 42 3 0 -7 -8 -15 -17 -19 -18 -5 -29 -12 -85 -49
-16 -10 -28 -14 -28 -8 0 6 -4 11 -10 11 -5 0 -7 -6 -4 -14 3 -8 -12 -27 -38
-47 -24 -19 -48 -40 -54 -48 -14 -18 -168 -21 -186 -3 -7 7 -20 12 -29 12 -24
0 -129 50 -129 61 0 5 -3 8 -7 8 -28 -4 -42 2 -36 17 5 14 1 15 -25 9 -27 -5
-31 -4 -26 9 7 19 -38 39 -75 33 -22 -3 -20 -4 7 -6 20 0 31 -5 27 -11 -4 -7
-29 -9 -61 -6 -30 2 -54 0 -54 -5 0 -5 5 -9 10 -9 17 0 11 -37 -6 -44 -9 -4
-24 0 -34 9 -21 19 -30 19 -30 1 0 -17 49 -27 73 -14 12 6 35 6 66 -1 26 -5
57 -7 69 -4 16 4 29 -2 45 -19 12 -13 40 -31 62 -41 22 -10 53 -25 70 -35 16
-9 45 -18 65 -22 40 -6 53 -36 24 -57 -21 -15 -48 -18 -39 -4 3 6 -16 9 -47 9
-94 -2 -108 0 -108 20 0 10 -3 21 -6 25 -11 11 -34 -5 -34 -24 0 -13 -7 -19
-24 -19 -13 0 -29 -7 -36 -15 -10 -13 -9 -15 8 -15 12 0 24 -5 27 -11 4 -6 13
-8 21 -5 7 3 16 1 19 -3 3 -5 -1 -11 -8 -14 -10 -4 -123 -2 -161 2 -4 1 -6 12
-4 26 4 16 1 25 -8 25 -18 0 -27 -17 -14 -25 8 -5 6 -13 -5 -25 -15 -16 -15
-18 0 -24 9 -3 41 -6 71 -6 39 0 54 -4 54 -14 0 -8 -6 -16 -14 -19 -7 -3 -13
-19 -12 -35 0 -21 -7 -37 -24 -50 -22 -18 -23 -23 -12 -41 17 -28 16 -31 -13
-31 -29 0 -53 -36 -36 -53 14 -14 15 -87 1 -87 -5 0 -10 5 -10 10 0 6 -4 10
-10 10 -5 0 -10 -7 -10 -15 0 -8 4 -15 9 -15 5 0 11 -10 15 -22 5 -20 12 -12
59 55 60 88 107 131 157 144 38 11 63 7 54 -8 -3 -6 -1 -16 5 -23 9 -11 8 -18
-4 -30 -9 -9 -20 -16 -25 -16 -21 0 -30 -138 -9 -151 19 -12 26 -4 33 41 21
135 111 248 216 273 34 8 58 -6 42 -26 -13 -15 -7 -47 9 -47 5 0 17 17 28 39
11 21 29 41 39 43 28 8 52 -9 45 -30 -3 -9 4 -5 16 11 12 15 32 27 45 27 12 0
27 5 33 11 12 12 43 -14 43 -37 0 -8 4 -14 10 -14 5 0 12 -11 16 -25 3 -14 10
-25 15 -25 22 0 41 -64 37 -124 -4 -75 -49 -148 -104 -171 -22 -9 -34 -21 -34
-34 0 -24 -38 -96 -66 -125 -32 -32 -39 -69 -33 -186 2 -46 -22 -93 -80 -153
-45 -47 -124 -92 -142 -81 -13 8 -11 -20 3 -34 15 -15 32 -16 23 -2 -6 9 33
30 55 30 32 0 -5 -98 -44 -116 -12 -6 -19 -16 -17 -24 14 -44 -4 -105 -48
-175 -18 -28 -28 -78 -31 -150 0 -23 -11 -38 -46 -64 -33 -25 -43 -39 -39 -52
9 -27 -4 -81 -25 -107 -15 -18 -23 -21 -44 -12 -22 8 -30 6 -47 -11 -17 -17
-19 -23 -8 -31 9 -6 -2 -7 -33 -3 -42 5 -48 4 -49 -12 -1 -10 -2 -22 -4 -28
-1 -5 -3 -16 -3 -22 -1 -7 -7 -13 -13 -13 -8 0 -7 5 1 15 15 18 7 30 -14 22
-20 -8 -11 -66 14 -87 10 -8 20 -27 22 -42 6 -32 -14 -43 -56 -32 -25 6 -26 9
-20 55 5 41 4 49 -9 49 -14 0 -14 3 -2 27 9 16 11 31 5 37 -5 5 3 21 20 39
l28 30 -22 36 c-33 52 -49 106 -41 142 9 41 -11 30 -31 -17 -8 -19 -43 -65
-79 -103 -36 -37 -65 -73 -65 -79 0 -5 15 -9 33 -8 24 1 31 -3 28 -14 -2 -8
-4 -27 -5 -41 -1 -14 -7 -33 -14 -42 -8 -9 -11 -21 -7 -28 6 -8 10 -8 15 2 5
7 16 14 26 15 9 2 21 8 25 15 5 9 10 4 14 -14 6 -21 2 -32 -14 -46 -26 -23
-27 -34 -1 -26 15 5 20 2 18 -12 -6 -74 14 -93 40 -39 13 25 12 30 -7 50 -23
24 -26 36 -11 36 19 0 42 -60 35 -92 -11 -50 -83 -103 -114 -84 -13 8 -41 -4
-41 -18 0 -7 -14 -30 -30 -53 -36 -48 -73 -60 -102 -31 -19 19 -65 17 -52 -3
16 -26 -35 -119 -65 -119 -6 0 -11 -4 -11 -10 0 -5 -10 -10 -22 -10 l-23 1 24
19 c13 11 29 20 37 20 8 0 14 4 14 10 0 15 -39 32 -59 25 -10 -3 -30 -1 -45 4
-22 9 -26 8 -26 -7 0 -9 -19 -34 -42 -56 -24 -21 -35 -36 -25 -32 26 8 21 -19
-8 -38 -34 -22 -107 -31 -134 -16 -19 9 -26 9 -40 -4 -26 -24 -45 -20 -36 7 4
12 7 30 8 40 1 9 7 17 14 17 18 0 40 43 24 48 -7 2 -23 16 -36 30 -21 23 -25
24 -31 9 -3 -9 -4 -24 0 -32 3 -8 -4 -21 -17 -31 -15 -11 -18 -18 -9 -21 6 -3
12 -11 12 -18 0 -33 -58 -23 -66 11 -3 13 -10 24 -15 24 -17 0 -9 39 13 59 16
16 25 18 35 10 10 -9 14 -7 19 7 3 11 10 31 16 46 11 29 4 50 -15 47 -7 -1
-20 1 -30 6 -11 4 -28 3 -40 -4 -22 -11 -68 -16 -97 -10 -8 2 -76 0 -150 -5
-74 -5 -182 -9 -239 -10 -74 -1 -106 -5 -109 -13 -5 -18 -22 -16 -22 2 0 16
-50 45 -77 45 -14 -1 -12 -5 11 -24 16 -13 26 -28 22 -34 -3 -5 1 -13 10 -16
9 -4 14 -9 11 -13 -4 -3 -13 0 -22 7 -12 10 -18 10 -30 0 -8 -7 -15 -16 -15
-21 0 -5 -9 -18 -20 -29 -11 -11 -20 -27 -20 -35 0 -8 -3 -15 -7 -15 -5 0 -8
-11 -8 -25 0 -21 3 -23 25 -18 52 14 75 9 78 -16 3 -21 0 -23 -22 -19 -30 6
-62 -13 -52 -31 5 -7 13 -8 25 -2 22 12 46 -2 38 -23 -8 -20 -31 -21 -47 -1
-9 10 -24 13 -55 8 l-43 -6 8 36 c6 29 4 40 -11 56 -10 11 -16 26 -13 34 3 8
0 18 -5 22 -6 3 -9 11 -5 16 12 19 -15 35 -52 31 -34 -4 -36 -6 -30 -33 5 -24
2 -29 -15 -29 -17 0 -19 -4 -13 -35 l6 -35 -47 0 c-92 0 -165 69 -165 155 0
38 -13 44 -41 19 -21 -19 -39 -11 -39 17 0 13 -7 19 -22 19 -17 0 -19 3 -10
12 13 13 16 38 5 38 -5 0 -19 -9 -32 -19 -21 -16 -22 -20 -10 -40 12 -19 12
-24 -3 -35 -26 -19 -23 -23 22 -31 27 -5 46 -3 55 5 12 10 18 10 30 0 14 -11
14 -16 -1 -38 -11 -16 -13 -27 -7 -29 6 -2 9 -12 6 -22 -6 -24 -53 -23 -53 1
0 9 -9 19 -19 23 -11 3 -36 24 -55 45 -27 30 -44 40 -67 40 -24 0 -30 -4 -25
-16 9 -24 -44 -14 -58 11 -5 11 -24 40 -40 64 -16 25 -32 60 -35 80 -5 27 -12
36 -34 42 -38 10 -55 26 -78 70 -25 49 -24 92 2 147 14 29 18 47 12 53 -13 13
-52 -35 -60 -73 -6 -32 -19 -35 -49 -10 -64 51 -67 140 -8 217 38 51 40 55 20
55 -8 0 -29 -20 -47 -45 -18 -25 -36 -45 -41 -45 -16 0 -48 65 -48 98 0 18 10
53 21 78 21 43 21 46 5 62 -16 16 -19 15 -42 -11 -13 -16 -24 -41 -24 -57 0
-40 -13 -44 -49 -14 -26 22 -31 33 -31 71 0 30 7 55 22 75 l21 31 -26 19 c-31
23 -34 44 -11 70 16 17 18 16 37 -20 10 -20 21 -38 22 -40 2 -2 17 4 34 12 47
25 134 21 165 -7 20 -17 23 -27 16 -44 -6 -15 -18 -23 -33 -23 -27 0 -77 -21
-77 -33 0 -18 31 -17 70 3 31 16 52 20 77 15 22 -4 40 -2 51 7 15 11 15 11 4
-3 -10 -14 -10 -20 3 -32 8 -9 15 -23 15 -31 0 -21 13 -20 33 2 15 16 15 20
-4 51 -11 18 -18 40 -15 47 7 19 36 18 36 -1 0 -17 16 -20 25 -5 3 5 -3 18
-15 30 -25 25 -25 31 -1 58 23 28 31 28 28 1 -3 -30 19 -35 26 -7 4 13 2 24
-3 26 -5 2 -6 10 -3 18 3 9 -2 14 -14 14 -25 0 -56 33 -58 63 -1 18 -9 23 -51
29 -36 5 -53 3 -65 -8 -20 -18 -33 -18 -48 0 -9 11 -6 15 14 20 37 9 21 26
-25 26 -43 0 -59 -14 -33 -28 14 -8 15 -13 4 -26 -7 -8 -10 -19 -7 -24 6 -10
-36 -32 -60 -32 -8 0 -28 7 -44 15 -26 13 -28 18 -23 55 4 27 2 40 -6 40 -14
0 -71 39 -87 60 -10 12 -16 12 -39 2 -21 -10 -25 -16 -17 -24 8 -8 15 -8 25 1
12 9 18 6 31 -13 16 -25 16 -25 -22 -26 -57 -1 -64 -1 -102 4 -30 3 -38 -1
-55 -27 -13 -20 -37 -38 -65 -48 -44 -16 -62 -40 -41 -54 6 -3 11 -14 11 -24
0 -20 -26 -31 -73 -31 -15 0 -30 -6 -33 -14 -9 -23 -57 -38 -87 -27 -28 11
-52 45 -42 61 3 6 3 10 -1 10 -12 0 -128 -43 -137 -50 -5 -4 7 -20 25 -35 30
-25 37 -27 95 -22 35 4 63 4 63 1 0 -3 -7 -19 -16 -37 -20 -37 -51 -68 -95
-94 -17 -10 -48 -35 -69 -56 -21 -20 -52 -40 -69 -43 -23 -5 -36 -16 -47 -40
-16 -33 -67 -84 -84 -84 -5 0 -12 -14 -15 -32 -9 -41 -38 -79 -76 -102 -31
-19 -38 -36 -14 -36 9 0 25 -9 37 -20 16 -15 18 -20 7 -20 -8 0 -20 5 -26 11
-9 9 -19 6 -40 -9 -20 -14 -34 -17 -51 -11 -27 10 -61 1 -41 -12 8 -4 11 -10
8 -14 -6 -6 -36 8 -81 39 -26 17 -28 17 -52 -1 -42 -31 -49 -50 -29 -81 10
-15 22 -30 27 -33 5 -4 -1 -12 -12 -18 -11 -6 -24 -20 -27 -31 -8 -26 -18 -25
-30 3 -6 12 -21 24 -34 25 -21 3 -23 1 -19 -23 5 -23 1 -28 -23 -37 -25 -9
-27 -12 -14 -25 16 -15 20 -43 7 -43 -4 0 -13 5 -20 12 -9 9 -12 5 -12 -19 0
-18 -4 -35 -10 -38 -18 -11 -11 -24 20 -40 26 -14 29 -18 17 -30 -8 -8 -38
-17 -66 -21 -41 -5 -51 -4 -51 8 0 8 5 19 12 26 10 9 8 16 -5 29 -23 23 -68 4
-60 -26 6 -24 3 -25 -32 -9 -26 12 -32 23 -15 33 24 15 7 22 -20 9 -16 -9 -30
-17 -30 -18 0 -2 9 -14 21 -27 11 -13 16 -25 10 -27 -15 -5 -90 50 -97 71 -3
9 -10 17 -15 17 -16 0 -9 29 10 39 14 8 23 6 36 -9 22 -24 41 -25 53 -4 6 11
17 15 32 11 12 -3 33 -1 47 4 18 7 30 6 41 -3 13 -11 15 -10 9 11 -3 12 0 34
6 48 10 22 8 28 -11 43 -27 22 -28 30 -4 23 10 -2 27 -18 36 -35 13 -20 21
-27 29 -19 7 7 5 18 -7 36 -14 21 -15 32 -5 68 6 23 19 56 30 73 10 17 19 34
19 38 0 13 -41 -15 -47 -32 -4 -9 -15 -28 -25 -41 -10 -13 -16 -32 -13 -41 7
-23 -48 -48 -68 -31 -14 11 -77 -6 -77 -21 0 -4 -9 -8 -20 -8 -12 0 -24 -10
-30 -24 -7 -19 -16 -24 -38 -24 -16 1 -34 -2 -40 -6 -6 -3 -13 -2 -17 3 -3 6
-30 2 -68 -11 -101 -34 -97 -32 -88 -47 8 -13 12 -13 26 -1 24 20 37 -4 30
-59 -5 -42 -4 -43 19 -37 20 5 28 0 46 -29 12 -19 27 -35 35 -35 7 0 15 -12
18 -26 4 -25 3 -24 -29 10 -19 20 -40 36 -48 36 -24 0 -39 -28 -32 -60 5 -27
3 -30 -19 -30 -15 0 -32 11 -46 32 -22 30 -33 68 -20 66 24 -2 41 4 41 16 0 8
5 16 11 18 20 7 -13 49 -36 46 -11 -1 -25 1 -31 5 -6 3 -20 -1 -31 -11 -16
-13 -20 -30 -21 -77 -1 -54 2 -63 30 -92 20 -21 35 -29 42 -24 7 6 15 1 22
-14 10 -21 9 -23 -20 -21 -30 1 -38 8 -67 63 -18 33 -45 29 -58 -9 -9 -27 -9
-33 4 -41 13 -7 14 -12 4 -23 -16 -20 -33 -18 -55 7 -17 19 -18 21 -1 30 21
12 22 45 2 53 -8 3 -15 14 -15 24 0 10 -8 27 -19 38 -13 14 -16 26 -10 37 6 9
5 26 -1 43 -13 33 -11 35 26 25 16 -5 24 -10 17 -10 -12 -1 -7 -38 8 -57 5 -6
6 -13 3 -17 -8 -8 34 -29 45 -23 30 19 15 110 -19 120 -11 3 -10 4 3 5 10 0
27 -4 37 -9 15 -8 24 -6 38 7 10 10 27 24 38 31 17 11 14 12 -21 7 -128 -16
-232 -32 -247 -39 -26 -12 -22 -35 7 -46 32 -12 32 -27 0 -56 -32 -30 -32 -42
2 -46 19 -2 29 -10 34 -30 9 -33 1 -42 -18 -23 -11 12 -18 12 -33 2 -11 -6
-20 -15 -20 -20 0 -4 4 -6 9 -3 4 3 16 -3 26 -14 10 -11 24 -20 32 -20 7 0 13
-6 13 -12 0 -21 -53 -18 -76 3 -11 10 -32 20 -46 21 -15 1 -26 5 -25 9 1 4 -2
7 -8 7 -5 0 -9 -3 -8 -7 1 -4 -8 -6 -20 -5 -12 1 -26 3 -30 3 -5 1 -5 6 -2 12
4 6 13 8 21 5 15 -6 15 -4 19 87 2 38 -1 49 -16 58 -15 8 -19 6 -19 -7 0 -13
-6 -15 -27 -10 -15 4 -29 3 -33 -4 -4 -6 -26 -14 -49 -17 -22 -3 -41 -9 -41
-14 0 -13 46 -40 60 -37 8 2 17 -13 22 -37 5 -21 17 -49 28 -60 29 -30 26 -46
-5 -32 -14 7 -25 22 -27 37 -3 21 -8 25 -31 22 -41 -4 -71 28 -62 67 8 36 1
38 -46 14 -19 -9 -43 -17 -54 -18 -17 0 -20 -7 -20 -46 1 -43 -1 -45 -25 -41
-25 5 -25 5 -6 -17 15 -16 22 -18 33 -9 11 9 18 7 31 -6 16 -17 16 -18 -4 -12
-12 4 -34 0 -50 -9 -16 -8 -42 -15 -59 -15 -74 1 -155 69 -125 105 10 12 10
19 2 27 -17 17 -15 29 6 26 11 -2 18 4 20 19 4 24 41 38 74 27 17 -5 20 -3 15
11 -4 9 -7 27 -7 40 0 32 -36 40 -68 14 -14 -10 -31 -19 -38 -19 -16 0 -23
-25 -26 -95 l-3 -50 -44 -3 c-25 -2 -54 -1 -67 2 -27 7 -84 56 -84 73 0 17
-33 33 -65 33 -41 0 -101 38 -122 77 -14 26 -24 33 -43 31 -43 -4 -129 65
-130 105 0 10 -6 19 -12 21 -7 2 -31 9 -54 15 -53 14 -110 70 -124 121 -8 31
-19 44 -49 60 -54 27 -99 85 -107 136 -4 29 -16 51 -36 71 -56 52 -81 101 -75
149 3 34 0 47 -14 60 -34 31 -66 99 -67 146 -2 37 -9 53 -38 84 -37 41 -54 72
-54 104 0 10 -22 41 -49 69 -48 49 -56 65 -81 162 -8 31 -20 51 -36 60 -13 7
-24 18 -24 26 0 7 -6 13 -14 13 -19 0 -40 26 -27 34 5 4 31 -1 56 -10 54 -18
66 -13 39 17 -16 18 -26 20 -67 15 -35 -4 -55 -1 -73 10 -13 9 -30 14 -38 11
-12 -5 -12 -12 0 -48 8 -23 13 -48 10 -55 -7 -18 -34 -7 -41 16 -3 10 -13 20
-23 22 -11 2 -16 13 -17 33 0 25 -4 31 -27 33 -23 3 -28 8 -28 31 0 17 -11 38
-30 56 -17 16 -36 46 -42 67 -11 37 -10 40 23 69 30 26 40 29 87 26 35 -3 63
-11 85 -27 17 -13 41 -23 52 -22 32 3 107 -19 140 -42 43 -30 63 -56 75 -98
10 -35 12 -37 35 -26 26 12 33 32 15 43 -5 3 -10 14 -10 23 -1 19 -33 62 -47
62 -14 0 -35 44 -32 66 2 10 0 25 -4 32 -9 14 -4 15 67 12 27 -1 60 -9 73 -17
21 -14 25 -14 41 0 43 38 105 59 173 59 39 1 75 -4 83 -11 10 -8 16 -9 21 -2
18 30 204 55 240 33 5 -4 15 -7 20 -7 6 -1 26 -5 46 -9 28 -6 43 -4 63 9 17
11 54 19 99 22 61 4 79 1 117 -19 25 -13 59 -36 76 -53 29 -28 64 -38 80 -22
4 4 2 7 -4 7 -7 0 -5 8 6 20 22 26 71 39 150 39 78 0 134 -23 186 -77 l39 -41
50 26 c91 46 224 21 316 -57 28 -24 35 -37 34 -64 -1 -35 11 -39 42 -15 6 4
40 13 77 19 61 11 73 10 132 -10 76 -25 108 -48 142 -102 27 -42 25 -60 -4
-42 -13 9 -23 4 -49 -21 -18 -18 -33 -35 -33 -40 0 -12 53 5 73 23 10 9 35 17
55 19 20 1 67 4 105 8 61 6 72 4 117 -21 27 -15 66 -44 85 -66 l36 -39 -55
-25 c-31 -14 -58 -30 -61 -35 -4 -5 -14 -9 -24 -9 -10 0 -24 -6 -30 -14 -20
-24 8 -31 32 -9 12 11 49 30 82 43 33 13 62 27 65 31 9 13 114 14 135 1 11 -7
51 -23 89 -35 77 -24 92 -42 50 -58 -23 -8 -26 -12 -14 -20 12 -8 12 -12 2
-16 -22 -9 -52 -45 -45 -56 3 -5 8 -5 12 1 20 32 206 94 254 85 25 -5 27 -3
29 28 0 19 2 45 2 60 1 14 14 51 30 83 31 64 28 84 -6 40 -13 -15 -33 -37 -45
-47 -12 -11 -27 -32 -33 -48 -13 -30 -18 -33 -44 -23 -14 5 -13 10 6 38 12 17
31 37 41 45 10 7 22 24 27 37 5 13 16 24 25 24 10 0 15 10 15 28 0 36 8 44 32
31 16 -8 17 -13 7 -25 -6 -8 -10 -16 -8 -18 6 -7 99 36 99 45 0 4 -28 23 -62
41 -74 40 -179 144 -230 230 -21 35 -42 68 -47 74 -6 7 -9 20 -9 30 2 30 -28
91 -56 115 -31 27 -33 39 -5 39 19 0 18 4 -15 49 -20 27 -36 55 -36 62 0 24
-50 171 -80 239 -26 58 -41 96 -89 230 -7 19 -26 71 -42 115 -96 263 -132 390
-204 710 -19 88 -40 176 -45 196 -18 65 -40 203 -40 248 0 62 -32 121 -83 152
-23 15 -85 47 -137 72 -108 51 -154 94 -177 165 -8 26 -21 61 -29 78 -9 22
-12 64 -10 150 4 124 11 169 30 193 6 7 11 48 12 90 1 99 5 105 64 98 l47 -6
-7 41 c-4 22 -13 44 -19 48 -7 4 -11 13 -9 21 2 10 -6 13 -34 11 -32 -2 -38 0
-38 17 0 11 -6 24 -13 28 -8 4 -17 17 -21 28 -8 19 -8 19 -19 -3 -6 -13 -37
-35 -76 -54 -36 -17 -88 -45 -116 -63 -72 -45 -82 -47 -102 -22 -27 34 -50 23
-58 -26 -4 -23 -11 -50 -17 -59 -10 -21 -26 -24 -24 -5 2 22 -19 22 -22 0 -2
-13 1 -23 7 -23 7 0 11 -26 11 -65 0 -36 -4 -65 -10 -65 -5 0 -12 -11 -16 -24
-4 -16 -11 -23 -20 -19 -8 3 -12 9 -9 13 3 4 -2 10 -10 14 -8 3 -15 15 -15 27
0 19 -4 20 -40 14 -38 -6 -57 6 -27 18 6 3 2 6 -10 6 -22 1 -23 5 -23 90 0 50
4 93 10 96 6 3 10 -1 10 -9 0 -9 5 -16 10 -16 6 0 10 -11 10 -25 0 -14 5 -25
10 -25 6 0 10 9 10 21 0 12 8 23 20 26 11 3 20 14 20 24 0 11 9 28 20 39 26
26 26 7 0 -36 -14 -22 -17 -35 -10 -39 7 -4 14 2 17 14 3 12 11 21 18 21 6 0
17 11 23 25 7 14 19 28 27 31 8 4 15 12 15 19 0 7 37 86 83 176 112 220 112
220 41 401 -96 248 -124 328 -135 392 -26 151 -41 247 -50 331 -17 150 -24
186 -34 187 -5 1 -18 -14 -27 -33 -31 -60 -174 -401 -208 -494 -18 -49 -47
-110 -65 -135 -30 -42 -65 -136 -65 -173 0 -8 7 -18 16 -21 12 -5 15 -2 10 10
-3 8 -3 28 2 42 4 18 9 -15 12 -93 3 -74 1 -123 -5 -127 -7 -5 -6 -11 1 -15
23 -16 35 -52 24 -72 -5 -11 -14 -21 -19 -23 -4 -1 -12 -14 -16 -28 -7 -23 -6
-24 10 -10 9 8 29 14 43 15 23 0 27 4 25 28 -1 15 2 27 7 27 12 0 23 -54 24
-123 2 -45 -2 -61 -17 -74 -12 -11 -16 -25 -13 -39 4 -15 0 -27 -12 -36 -10
-7 -23 -21 -28 -31 -9 -16 -11 -16 -24 8 -7 14 -19 25 -27 25 -7 0 -13 5 -13
11 0 6 -7 17 -15 25 -12 12 -18 12 -34 2 -17 -10 -20 -22 -19 -65 1 -32 5 -48
10 -41 6 10 8 9 8 -2 0 -8 3 -26 6 -40 l5 -25 -15 25 -15 25 -1 -25 c0 -18 -3
-21 -9 -12 -9 15 -6 308 5 414 4 45 3 72 -5 81 -15 19 -62 198 -71 272 -4 33
-13 78 -19 98 -8 22 -10 54 -6 75 9 55 6 141 -11 287 -10 85 -15 221 -15 393
0 144 -4 262 -8 262 -15 0 -84 -88 -154 -195 -91 -140 -141 -239 -262 -520 -7
-16 -23 -64 -35 -105 -35 -118 -61 -194 -71 -206 -7 -9 -31 -97 -55 -202 -20
-90 -93 142 -109 348 -4 47 -13 117 -20 155 -8 39 -17 90 -20 115 -4 24 -8 47
-10 50 -2 3 -8 44 -15 90 -10 80 -27 179 -36 208 -2 8 -30 -14 -69 -55 -47
-49 -67 -65 -75 -57 -9 9 1 30 34 78 29 43 46 78 46 97 0 16 9 67 19 112 17
73 36 172 61 322 5 28 18 82 29 120 12 39 30 99 41 135 19 62 26 120 15 120
-31 0 -294 -248 -409 -385 -100 -118 -278 -405 -301 -485 -4 -14 -15 -35 -25
-47 -13 -17 -58 -140 -77 -212 -9 -34 -26 14 -44 125 -30 181 -42 324 -41 481
1 78 -2 144 -7 147 -15 10 -50 -25 -118 -116 -128 -170 -255 -378 -268 -438
-2 -8 -17 -44 -33 -80 -32 -70 -101 -268 -127 -365 -25 -92 -25 -93 -35 -75
-32 59 -49 259 -56 630 -3 167 -7 307 -10 309 -14 14 -118 -156 -201 -329 -15
-30 -37 -68 -49 -85 -12 -16 -25 -41 -29 -55 -4 -14 -20 -50 -35 -80 -82 -162
-167 -404 -202 -569 -19 -94 -20 -111 -9 -170 17 -85 19 -123 6 -127 -14 -4
-95 96 -95 117 0 9 -11 24 -25 33 -14 9 -25 21 -25 26 0 12 -66 82 -271 288
-85 86 -173 180 -194 207 -48 62 -127 145 -137 145 -4 0 -15 -17 -23 -37 -24
-57 -86 -165 -92 -160 -2 3 9 46 26 95 17 49 31 95 31 102 0 12 -79 89 -92 90
-13 0 -76 -148 -98 -232 -12 -46 -26 -99 -32 -118 -5 -19 -13 -51 -17 -70 -4
-19 -13 -51 -19 -70 -15 -49 -41 -235 -48 -355 -5 -77 -2 -119 11 -180 25
-114 33 -162 41 -225 20 -184 135 -512 235 -674 34 -56 28 -76 -17 -54 -16 8
-54 20 -84 28 -30 7 -67 21 -82 32 -15 10 -44 25 -66 32 -22 8 -58 26 -81 40
-23 15 -63 35 -89 45 -64 26 -356 171 -415 207 -27 16 -88 54 -136 85 -59 38
-101 58 -131 62 -25 3 -61 9 -81 12 -31 6 -40 3 -72 -28 -43 -40 -41 -61 7
-77 35 -11 176 -153 176 -177 0 -7 4 -13 9 -13 5 0 20 -18 33 -40 42 -72 160
-244 243 -355 45 -60 102 -141 126 -180 24 -38 60 -93 81 -122 67 -92 52 -106
-110 -105 -64 0 -171 -4 -237 -9 -102 -9 -133 -16 -205 -46 -146 -62 -170 -85
-348 -341 -18 -26 -42 -78 -54 -117 -12 -38 -36 -106 -55 -150 -35 -83 -60
-203 -48 -233 6 -16 7 -16 16 1 17 29 140 117 217 154 67 32 81 35 170 36 78
1 110 -3 164 -21 37 -13 78 -32 90 -41 21 -18 21 -19 2 -24 -10 -3 -46 -11
-78 -16 -65 -12 -113 -36 -130 -65 -8 -14 -8 -20 1 -23 21 -8 197 -115 213
-129 12 -12 12 -16 -5 -29 -11 -8 -44 -27 -72 -41 -65 -33 -109 -75 -136 -134
-12 -25 -23 -48 -24 -51 -4 -7 164 -55 225 -63 23 -4 73 -18 110 -32 37 -14
83 -32 102 -39 19 -7 94 -35 165 -61 115 -42 314 -137 445 -214 59 -34 137
-70 152 -70 6 0 21 -9 32 -19 12 -11 59 -34 106 -51 46 -17 100 -39 120 -49
43 -23 97 -46 128 -56 13 -4 27 -17 32 -30 9 -23 -4 -103 -20 -119 -13 -13
-59 38 -86 99 -38 81 -48 81 -40 -1 4 -38 11 -91 16 -119 4 -27 12 -69 15 -92
8 -48 38 -80 105 -115 39 -20 63 -23 168 -26 67 -2 122 -8 122 -13 0 -12 -65
-44 -129 -63 -30 -9 -85 -16 -122 -16 -123 0 -88 -40 42 -48 81 -5 151 13 312
79 89 37 107 30 107 -41 0 -108 104 -444 151 -486 17 -15 18 -15 24 9 4 16 20
31 46 43 37 16 42 16 74 1 19 -9 35 -22 35 -28 0 -14 86 -122 154 -194 26 -27
54 -64 62 -82 8 -18 28 -42 44 -55 17 -12 30 -28 30 -35 0 -26 29 -68 64 -93
20 -14 36 -33 36 -43 0 -11 8 -21 18 -24 20 -6 82 -87 82 -107 0 -7 7 -19 15
-26 8 -7 15 -18 15 -24 0 -15 42 -56 58 -56 15 0 91 -82 119 -130 13 -22 28
-40 34 -40 5 0 17 -17 27 -37 9 -21 29 -48 45 -61 15 -13 27 -30 27 -38 0 -7
8 -18 19 -23 10 -6 24 -25 32 -43 7 -18 19 -39 26 -46 7 -7 13 -20 13 -28 0
-8 9 -23 19 -33 11 -11 27 -34 36 -50 8 -17 22 -31 30 -31 9 0 15 -10 15 -25
0 -14 4 -25 8 -25 5 0 18 -17 29 -37 28 -50 198 -244 329 -377 29 -29 59 -66
68 -84 9 -17 28 -39 42 -49 14 -10 44 -38 67 -62 46 -48 88 -76 187 -129 36
-19 76 -44 90 -57 14 -12 69 -46 122 -74 88 -46 141 -66 248 -91 19 -5 69 -21
110 -35 106 -38 352 -77 478 -77 93 1 232 17 362 42 103 20 196 42 205 50 11
9 61 25 145 45 47 12 159 50 316 108 23 8 50 20 60 26 11 5 60 29 109 52 113
52 186 88 205 104 8 7 22 14 30 17 40 14 198 146 322 268 75 74 156 153 179
175 23 22 54 57 70 78 15 21 43 50 62 65 19 15 59 56 90 91 30 35 68 72 84 82
54 34 339 47 395 18 9 -5 26 -21 36 -37 31 -43 470 -482 528 -527 108 -85 154
-132 154 -159 0 -43 52 -80 169 -119 58 -20 122 -39 141 -42 32 -6 98 -32 142
-56 10 -5 23 -9 30 -9 7 0 26 -7 43 -16 16 -8 52 -20 80 -26 27 -6 70 -21 95
-34 25 -13 68 -28 95 -33 28 -5 57 -12 65 -15 8 -4 45 -11 83 -16 37 -6 97
-15 135 -20 107 -16 292 -20 314 -7 13 9 23 9 36 0 29 -17 479 15 507 37 6 4
26 10 46 14 19 3 53 15 74 26 22 11 52 20 67 20 15 0 29 4 32 9 3 5 17 12 31
15 14 4 49 21 78 39 28 18 77 44 107 57 30 13 78 38 105 55 28 17 58 34 68 38
9 3 17 10 17 15 0 5 18 17 40 27 22 10 40 22 40 26 0 4 9 11 20 14 11 4 32 17
47 31 14 13 33 24 41 24 19 0 122 108 122 129 0 5 11 18 25 28 14 10 33 42 44
73 11 30 23 54 28 53 4 -2 8 2 8 9 0 22 42 58 68 58 19 0 35 13 62 50 20 28
45 56 54 63 10 6 33 37 53 67 19 30 42 61 51 69 10 7 17 19 17 26 0 7 21 36
47 64 51 55 80 102 143 228 22 45 53 94 69 109 16 15 32 42 35 60 4 17 13 37
21 44 8 7 12 16 9 22 -3 5 5 17 18 27 13 10 37 47 53 82 33 70 32 69 73 119
15 19 37 55 47 80 18 42 54 98 83 128 6 7 12 21 12 30 0 20 123 192 145 205 8
4 15 14 15 21 0 19 28 72 45 86 8 7 15 18 15 24 0 6 15 27 33 46 17 19 41 51
51 70 10 19 36 61 56 92 21 31 48 77 60 103 12 25 33 53 46 62 13 8 23 21 22
27 -4 18 45 96 64 102 10 3 24 11 31 18 16 16 146 86 161 86 6 0 31 16 56 35
25 19 62 46 82 60 42 28 147 177 184 261 17 38 36 62 66 83 24 17 63 45 88 64
25 19 92 57 150 84 58 28 129 66 159 87 29 20 58 36 63 36 20 0 175 78 228
114 29 20 64 39 79 42 14 3 62 16 106 30 168 50 206 55 350 48 115 -6 135 -5
135 8 0 8 -38 72 -85 144 -47 71 -94 143 -105 159 -56 86 -202 203 -288 230
-13 4 -39 21 -59 38 -69 61 -178 117 -240 125 -24 2 -43 9 -43 14 0 5 18 17
40 27 23 10 46 26 53 35 7 9 48 32 91 51 43 18 86 41 95 49 10 9 22 16 27 16
5 0 36 18 69 40 33 22 64 40 69 40 9 0 80 35 141 70 184 105 267 135 355 127
30 -2 63 -8 73 -12 29 -12 20 13 -35 93 -104 150 -283 304 -455 391 -69 34
-117 39 -144 15 -14 -12 -24 -13 -56 -5 -21 5 -50 13 -65 16 -16 3 -28 9 -28
13 0 14 322 330 380 373 67 50 167 109 290 171 122 61 126 65 104 90 -33 35
-143 108 -216 143 -214 100 -479 129 -738 78 -47 -9 -101 -15 -120 -13 -155
15 -231 -8 -402 -122 -83 -56 -108 -67 -108 -50 0 14 37 156 60 229 30 95 34
218 9 288 -16 46 -18 72 -13 177 7 136 2 169 -51 368 -46 175 -70 251 -105
325 -15 33 -31 71 -35 85 -4 14 -15 41 -25 60 -10 19 -24 52 -31 74 -7 23 -19
40 -30 43 -11 3 -19 11 -19 17 0 20 -61 106 -73 105 -13 0 -77 -83 -77 -98 0
-5 25 -50 55 -100 30 -51 55 -94 55 -97 0 -3 -16 -2 -35 2 -43 8 -47 -9 -6
-26 16 -6 37 -20 47 -31 32 -36 5 -32 -53 7 -71 47 -235 145 -238 142 -1 -2
-6 -50 -13 -107 -12 -121 -16 -109 78 -236 88 -119 164 -234 158 -240 -3 -4
-191 223 -275 332 -7 9 -15 14 -18 11 -3 -3 27 -48 68 -100 82 -105 191 -252
255 -342 61 -86 52 -102 -16 -31 -67 70 -189 176 -258 223 -27 19 -87 60 -133
93 -45 33 -84 59 -85 57 -1 -2 -13 -21 -27 -43 -14 -22 -29 -58 -32 -81 -6
-39 -4 -44 91 -168 162 -213 230 -315 293 -442 65 -131 80 -206 20 -99 -89
159 -148 230 -408 497 -74 77 -84 91 -79 114 24 95 4 189 -83 384 -21 47 -46
112 -56 145 -18 64 -139 313 -185 380 -44 65 -130 215 -130 227 0 11 -68 91
-83 97 -5 2 -8 -7 -6 -20 1 -13 -1 -31 -5 -40 -4 -9 -8 -130 -10 -270 -1 -176
-7 -291 -19 -374 -10 -66 -21 -142 -25 -170 -4 -27 -11 -50 -17 -50 -5 0 -13
34 -16 75 -29 338 -45 453 -68 498 -18 34 -19 49 -11 129 9 97 10 92 -55 313
-15 52 -36 122 -47 155 -10 33 -23 75 -28 93 -9 37 -36 82 -49 82 -5 0 -14 -6
-20 -13z m-1205 -1268 c3 -6 1 -16 -5 -22 -6 -6 -11 -17 -11 -25 0 -12 3 -12
15 -2 8 7 15 19 15 26 0 29 16 11 39 -44 29 -68 75 -171 102 -228 10 -22 19
-48 19 -57 0 -9 4 -18 9 -21 14 -9 25 -76 22 -135 -2 -37 0 -51 8 -47 6 4 11
0 11 -8 0 -9 -4 -16 -10 -16 -5 0 -10 -13 -10 -29 0 -17 -4 -33 -10 -36 -5 -3
-10 -16 -10 -28 0 -12 -7 -31 -15 -41 -8 -11 -15 -27 -15 -36 0 -9 -7 -31 -16
-49 -12 -24 -14 -49 -10 -104 8 -102 8 -108 1 -142 -3 -16 -1 -37 5 -45 19
-28 31 9 24 70 -16 121 0 185 61 243 13 12 37 49 55 82 33 61 73 113 54 70 -5
-11 -10 -62 -11 -114 -1 -73 3 -109 19 -158 19 -58 18 -96 -1 -64 -5 7 -11 9
-13 5 -3 -5 -6 -169 -7 -364 -4 -438 -11 -580 -32 -606 -5 -6 -7 -19 -3 -27 3
-9 0 -32 -6 -52 -14 -41 -17 -63 -26 -160 -5 -46 -14 -80 -28 -99 -12 -19 -19
-42 -17 -62 1 -17 -5 -49 -14 -70 -11 -27 -14 -53 -10 -84 5 -39 2 -49 -20
-72 -14 -15 -25 -31 -25 -36 0 -5 -16 -27 -35 -49 -19 -23 -35 -46 -35 -52 0
-6 -2 -11 -4 -11 -2 0 -11 -3 -20 -6 -11 -4 -16 -1 -16 11 0 9 -5 13 -10 10
-8 -5 -7 -12 1 -22 14 -16 5 -26 -43 -44 -16 -6 -28 -20 -30 -32 -2 -18 -10
-22 -42 -22 -30 0 -41 -5 -46 -20 -6 -15 -2 -22 14 -27 18 -5 17 -6 -7 -7 -15
-1 -26 -4 -26 -8 1 -5 0 -21 -1 -38 -2 -29 -2 -29 -9 -5 -7 25 -51 43 -51 21
0 -6 7 -11 15 -11 17 0 20 -23 5 -50 -6 -11 -7 -28 -1 -42 11 -29 -3 -68 -25
-68 -11 0 -15 -6 -11 -20 3 -11 0 -20 -6 -20 -8 0 -7 -3 2 -9 10 -6 10 -13 2
-29 -17 -32 -4 -53 28 -46 22 6 20 2 -16 -25 -42 -30 -83 -41 -83 -21 0 6 8
10 18 10 10 0 21 3 25 6 9 9 -4 35 -14 28 -5 -3 -9 0 -9 7 0 8 -6 5 -13 -5 -7
-10 -22 -17 -32 -15 -24 5 -22 23 4 27 26 4 43 26 47 58 2 26 1 26 -42 21 -46
-5 -54 2 -30 23 8 6 12 18 9 26 -4 10 3 14 23 15 l29 1 -27 11 c-16 6 -28 15
-28 20 0 12 -21 32 -42 40 -11 4 -18 2 -18 -5 0 -9 -3 -9 -11 -1 -8 8 -3 19
19 42 27 25 31 37 30 76 0 26 4 50 9 54 6 3 13 18 17 34 3 15 9 39 12 55 4 15
12 34 19 42 7 8 25 51 40 95 15 44 33 87 40 95 7 8 15 32 19 53 4 20 11 37 15
37 5 0 16 21 26 48 9 26 23 61 30 77 8 17 19 53 25 80 6 28 16 58 21 67 5 10
9 25 9 33 0 8 5 15 10 15 6 0 10 13 10 28 0 16 13 76 30 135 52 187 83 322 95
417 3 19 9 67 15 105 29 197 32 244 19 274 -17 38 -27 22 -22 -32 5 -53 -16
-169 -29 -161 -6 4 -7 27 -3 55 9 64 -8 119 -35 112 -12 -3 -20 0 -20 6 0 7 6
11 13 10 34 -4 36 2 15 44 -12 23 -27 45 -32 49 -6 4 -7 10 -3 15 5 4 12 1 17
-7 17 -28 31 17 31 100 l-1 35 15 -39 c11 -32 11 -46 2 -75 -13 -38 -12 -71 4
-71 11 0 15 20 28 140 10 97 2 193 -12 140 -3 -14 -2 -26 3 -28 6 -2 10 -15
10 -28 0 -17 -4 -23 -12 -18 -7 4 -8 3 -4 -4 5 -8 2 -10 -9 -6 -20 8 -29 47
-19 82 15 53 10 156 -8 174 -9 9 -14 25 -12 36 4 15 0 19 -18 18 -20 -1 -22 3
-19 38 2 26 -1 36 -8 32 -6 -4 -11 -16 -11 -26 0 -25 -18 -36 -26 -16 -3 9
-11 16 -18 16 -10 0 -36 72 -36 100 0 18 32 10 37 -9 5 -20 44 -33 64 -20 9 5
8 11 -4 23 -8 9 -20 16 -26 16 -6 0 -11 5 -11 10 0 6 7 10 15 10 9 0 15 9 15
25 0 27 -18 33 -38 13 -15 -15 -15 8 -1 72 6 25 15 65 20 90 6 25 13 62 16 83
3 20 9 37 14 37 5 0 9 16 9 35 0 34 12 46 26 24z m-972 -371 c7 -7 16 -22 20
-33 8 -18 9 -18 22 10 l13 30 2 -35 c1 -19 3 -42 3 -50 1 -8 9 -14 19 -14 10
1 17 -5 17 -16 0 -23 -33 -21 -42 3 -20 49 -38 -5 -19 -57 9 -22 15 -24 50
-17 2 1 -2 8 -9 16 -8 9 -9 15 -2 15 14 0 18 -8 27 -47 5 -26 3 -33 -8 -33
-17 0 -30 -27 -17 -35 5 -3 12 0 15 6 4 5 13 8 21 5 10 -4 14 2 14 21 0 21 2
24 15 13 8 -7 15 -27 14 -44 -1 -29 -1 -30 -8 -6 l-7 25 -6 -23 c-5 -18 -13
-23 -30 -21 -31 4 -52 -9 -39 -25 6 -7 6 -17 1 -26 -8 -12 -10 -10 -10 8 0 12
-3 22 -8 22 -4 0 -12 10 -17 22 -6 12 -21 25 -35 28 -18 4 -21 8 -12 14 11 6
8 11 -10 20 -15 8 -22 20 -21 34 2 12 -1 22 -6 22 -11 0 -21 37 -13 45 14 14
9 35 -9 35 -10 0 -19 4 -19 9 0 15 18 23 25 11 12 -19 24 -10 27 23 2 18 8 31
15 30 7 -2 10 4 7 12 -7 18 3 19 20 3z m-6364 -425 c0 -75 -8 -88 -84 -152
-39 -33 -84 -71 -100 -85 -27 -24 -46 -33 -46 -21 0 14 212 305 223 305 4 0 7
-21 7 -47z m7714 -254 c25 -101 51 -250 66 -384 5 -44 11 -98 15 -120 9 -64
23 -476 18 -523 -12 -100 -22 -22 -27 203 -7 282 -24 458 -70 705 -32 170 -33
242 -2 119z m-7974 -74 c10 -56 24 -136 40 -240 14 -86 28 -161 45 -240 7 -33
18 -87 25 -120 26 -120 131 -504 170 -620 11 -33 20 -68 20 -77 0 -10 4 -18 9
-18 5 0 14 -14 20 -31 13 -39 13 -39 1 -39 -11 0 -50 85 -69 150 -8 25 -19 59
-26 75 -31 73 -109 349 -144 505 -5 25 -14 65 -20 90 -20 87 -31 146 -46 245
-9 55 -20 128 -26 162 -9 61 -23 283 -13 233 2 -14 8 -47 14 -75z m940 35 c11
-11 22 -31 24 -46 7 -38 14 -41 25 -10 12 31 21 35 14 6 -3 -11 0 -20 6 -20 6
0 11 -5 11 -11 0 -5 -4 -8 -9 -4 -6 3 -13 -10 -17 -30 -4 -25 -1 -43 11 -62
10 -15 20 -47 22 -72 2 -25 8 -50 13 -56 5 -6 16 -33 25 -60 9 -28 27 -72 40
-100 12 -27 26 -59 30 -70 l7 -20 9 20 c8 16 8 15 4 -7 -3 -18 5 -49 24 -90
16 -35 33 -75 36 -90 4 -16 10 -28 14 -28 4 0 15 -20 25 -45 11 -25 23 -45 28
-45 4 0 8 -5 8 -11 0 -12 64 -153 80 -179 6 -8 17 -31 26 -50 9 -19 27 -56 40
-81 13 -26 24 -55 24 -65 0 -16 -3 -15 -24 6 -28 29 -86 136 -86 157 0 10 -6
13 -16 9 -9 -4 -22 -2 -29 4 -11 9 -13 5 -9 -17 2 -15 0 -35 -5 -43 -8 -12
-13 -10 -30 12 -11 14 -34 31 -51 38 -19 8 -30 19 -28 28 5 24 29 26 35 3 8
-32 23 -25 24 12 2 30 2 31 6 4 4 -28 9 -29 61 -10 6 3 12 0 12 -6 0 -6 5 -11
10 -11 12 0 -9 40 -30 56 -8 7 -12 15 -8 19 6 6 -53 129 -72 148 -4 5 -10 -10
-14 -32 -3 -23 -11 -41 -17 -41 -12 0 -4 52 14 89 9 19 9 25 0 28 -7 3 -13 9
-13 15 0 6 -16 44 -35 84 -19 40 -35 77 -35 82 0 19 -27 62 -34 54 -5 -4 -6 7
-4 23 2 25 -1 31 -19 33 -13 2 -23 7 -23 12 0 5 8 7 18 3 14 -5 15 -3 5 8 -7
7 -13 26 -13 41 0 15 -5 28 -10 28 -6 0 -17 18 -26 40 -9 21 -25 42 -35 45
-11 4 -17 11 -13 16 3 5 2 19 -1 30 -5 15 -9 18 -15 9 -5 -8 -11 -2 -18 18 -8
23 -7 32 1 36 8 3 5 10 -8 21 -20 17 -20 17 3 10 32 -9 29 23 -5 54 -26 22
-26 23 -5 18 17 -4 22 -1 22 13 0 11 -4 22 -10 25 -5 3 -10 15 -10 26 0 10 -4
19 -10 19 -5 0 -7 7 -4 15 8 19 10 19 34 -5z m5793 -411 c-1 -73 -4 -138 -7
-145 -3 -8 1 -14 9 -14 8 0 12 6 9 14 -6 15 13 32 23 22 10 -10 -20 -57 -33
-52 -8 3 -15 -6 -18 -22 -26 -141 -23 -221 10 -277 17 -29 25 -35 29 -24 3 9
28 22 55 29 28 8 50 17 50 22 0 4 7 8 15 8 11 0 15 -12 15 -46 0 -25 -4 -43
-9 -40 -12 8 -21 -18 -14 -43 6 -25 -24 -42 -37 -20 -14 22 -23 -13 -12 -52 6
-24 14 -33 25 -31 10 2 17 -4 17 -13 0 -11 9 -15 30 -13 38 3 46 28 30 88 -9
33 -9 45 1 50 6 5 9 14 6 22 -3 8 -2 21 3 28 4 7 2 24 -6 38 -15 30 -1 67 22
58 8 -3 14 -1 14 4 0 6 -7 10 -15 10 -15 0 -18 27 -5 40 24 24 55 190 32 176
-5 -3 -14 0 -20 7 -8 10 -5 13 15 15 15 1 27 3 29 5 1 1 4 23 6 49 2 26 7 50
10 54 9 9 21 -83 13 -96 -7 -11 -17 -155 -18 -240 0 -19 -4 -38 -10 -41 -13
-9 -20 -164 -10 -219 5 -25 5 -65 1 -90 -4 -25 -10 -62 -13 -82 -3 -21 -12
-44 -20 -52 -8 -8 -15 -30 -15 -48 0 -18 -7 -51 -16 -73 l-15 -40 6 55 c3 30
8 75 10 100 l4 45 -12 -38 c-7 -21 -16 -35 -20 -31 -13 14 -7 95 9 120 24 36
7 44 -22 11 -20 -23 -24 -39 -25 -95 0 -37 -3 -61 -6 -55 -3 10 -8 9 -20 -2
-9 -9 -24 -13 -39 -9 -19 5 -24 2 -24 -12 0 -16 2 -17 10 -4 8 11 12 12 18 3
10 -16 54 -12 69 7 10 12 12 5 13 -42 0 -61 -10 -77 -33 -53 -9 8 -23 15 -31
15 -9 0 -16 8 -16 20 0 11 -2 20 -4 20 -2 0 -11 3 -20 6 -12 4 -16 0 -16 -15
0 -26 -11 -27 -27 -1 -8 12 -9 21 -3 25 17 10 11 21 -17 34 l-28 13 23 15 c19
13 22 24 22 78 0 42 4 65 12 67 9 3 8 9 -4 21 -19 19 -33 71 -23 87 4 6 -4 10
-19 10 -16 0 -26 6 -26 15 0 8 7 15 15 15 8 0 19 16 25 40 13 48 21 53 15 8
l-5 -33 11 29 c10 24 9 31 -5 41 -9 7 -16 19 -16 27 0 18 -24 41 -33 31 -4 -3
-7 -27 -7 -52 -1 -25 -7 -57 -15 -71 -8 -14 -14 -41 -15 -62 0 -20 -11 -60
-25 -90 -14 -29 -25 -64 -25 -78 -1 -14 -8 -43 -16 -65 -8 -22 -30 -93 -50
-158 -19 -65 -39 -126 -44 -135 -5 -9 -21 -51 -36 -92 -46 -129 -55 -152 -124
-301 -16 -37 -30 -72 -30 -78 0 -6 -4 -11 -10 -11 -5 0 -10 -4 -10 -10 0 -17
-34 -90 -42 -90 -5 0 -8 -9 -8 -20 0 -11 -5 -20 -11 -20 -6 0 -8 -9 -4 -22 6
-17 4 -20 -9 -15 -9 4 -15 3 -14 -1 3 -15 -15 -62 -23 -62 -5 0 -9 -7 -9 -15
0 -17 -49 -109 -62 -113 -4 -2 -8 -14 -8 -27 0 -13 -8 -30 -18 -37 -11 -7 -21
-20 -25 -28 -5 -13 -6 -13 -6 1 -1 9 8 26 19 39 11 13 20 27 20 32 0 15 147
322 208 433 18 34 50 108 67 155 9 25 23 65 32 90 8 25 22 54 29 65 8 11 14
26 14 35 0 8 7 28 15 44 8 15 15 33 15 38 0 5 11 34 25 64 14 30 25 58 25 62
0 4 16 56 35 116 19 60 35 122 35 137 0 15 9 47 19 72 10 24 21 68 24 98 3 30
12 72 20 95 13 36 25 101 57 309 5 33 14 123 21 200 10 133 15 165 21 165 2 0
2 -59 1 -131z m477 -206 c41 -28 48 -38 55 -77 4 -20 11 -36 15 -36 11 0 22
64 14 84 -6 16 4 21 35 17 7 -2 10 2 6 9 -6 9 -2 9 13 1 30 -16 25 -51 -8 -51
-20 0 -22 -2 -10 -10 18 -11 70 -13 70 -2 0 8 49 32 67 32 21 0 15 -17 -8 -23
-13 -3 -19 -12 -17 -24 2 -10 -2 -17 -9 -15 -7 1 -13 -3 -13 -9 0 -7 12 -10
30 -7 27 4 30 2 31 -21 l1 -26 8 25 c5 17 8 19 9 8 1 -10 5 -18 10 -18 5 0 12
8 14 18 4 14 5 14 6 -3 0 -11 -6 -33 -14 -49 -8 -15 -15 -50 -15 -76 0 -33 -5
-52 -18 -63 -10 -10 -22 -14 -25 -10 -4 3 -7 -2 -7 -13 0 -10 -7 -39 -16 -63
-8 -25 -14 -63 -12 -85 1 -23 -1 -39 -6 -38 -5 2 -12 -2 -16 -8 -9 -14 -80
-23 -80 -11 0 5 -9 11 -20 14 -15 4 -20 0 -20 -13 0 -11 4 -21 9 -24 18 -11
17 -55 -1 -92 -22 -46 -23 -58 -1 -75 14 -13 13 -15 -13 -19 -34 -7 -43 3 -45
50 0 19 -3 29 -6 23 -2 -7 -13 -13 -24 -13 -12 0 -19 -7 -19 -20 0 -11 -4 -20
-10 -20 -5 0 -10 9 -10 20 0 11 5 20 10 20 6 0 10 5 10 10 0 6 -9 10 -20 10
-17 0 -20 -7 -20 -40 l0 -40 -44 0 c-34 0 -46 4 -50 18 -2 9 -4 -1 -3 -23 1
-30 -2 -40 -13 -40 -16 0 -16 6 -5 115 4 36 11 73 16 82 12 22 11 37 -1 18 -7
-12 -10 -12 -16 4 -5 13 -1 23 10 31 14 10 17 28 16 86 -2 75 1 96 20 155 11
32 31 42 73 35 4 0 7 1 7 4 0 5 -56 36 -65 35 -9 0 -9 4 -1 30 5 14 7 30 6 35
-1 6 4 4 12 -3 11 -11 10 -14 -1 -21 -11 -7 -9 -11 7 -20 21 -11 52 -6 52 9 0
5 -6 11 -12 13 -10 4 -10 7 0 15 9 6 11 18 6 36 -5 23 -11 27 -30 23 -13 -2
-24 0 -24 4 0 5 8 9 18 9 35 0 47 16 34 44 -8 17 -8 26 -1 26 6 0 7 5 4 10 -9
15 2 40 17 40 8 0 25 -8 38 -17z m-7761 -73 c7 -36 16 -74 21 -85 4 -11 18
-56 30 -100 25 -87 64 -213 88 -285 14 -43 27 -75 72 -175 11 -25 20 -47 20
-51 0 -3 11 -29 24 -57 13 -29 27 -63 31 -77 4 -14 16 -42 27 -63 10 -21 18
-43 15 -50 -8 -24 -99 177 -152 338 -8 22 -26 72 -41 110 -52 137 -74 201 -95
280 -70 270 -79 310 -60 290 4 -6 14 -39 20 -75z m3286 60 c3 -5 2 -18 -4 -27
-7 -13 -5 -23 7 -37 13 -14 17 -38 17 -106 0 -97 8 -118 27 -74 6 16 13 31 14
33 2 1 17 -4 35 -13 18 -9 38 -16 46 -16 7 0 13 -11 13 -24 0 -13 9 -59 20
-102 23 -91 25 -134 8 -135 -10 0 -10 -2 0 -6 6 -2 12 -15 12 -28 0 -13 4 -26
10 -30 5 -3 7 -11 4 -18 -2 -7 6 -17 18 -22 12 -6 26 -19 32 -30 19 -34 39
-51 44 -37 7 21 22 13 22 -12 0 -26 -16 -44 -22 -25 -2 7 -13 9 -25 5 -24 -8
-29 -52 -7 -60 8 -3 14 -17 14 -32 0 -23 2 -25 15 -14 9 7 19 9 23 5 4 -4 1
-10 -5 -12 -21 -8 -15 -39 10 -51 22 -10 21 -11 -10 -23 -40 -16 -43 -33 -5
-27 35 5 51 -11 50 -48 -1 -16 2 -39 6 -51 10 -31 -10 -67 -28 -51 -13 13 -10
58 5 58 5 0 9 7 9 16 0 14 -3 14 -15 4 -12 -10 -15 -10 -15 1 -1 11 -2 11 -9
-1 -5 -8 -6 -63 -3 -122 l5 -108 30 0 c21 0 41 10 62 30 21 20 34 27 44 20 12
-7 13 -13 3 -35 -13 -27 -17 -95 -6 -95 4 0 12 8 19 17 11 15 13 9 12 -37 -2
-42 1 -55 14 -58 9 -1 20 7 26 20 l10 22 5 -22 c4 -12 2 -22 -3 -22 -20 0 -8
-38 14 -44 13 -3 29 -20 39 -41 16 -36 16 -36 -9 -46 -37 -14 -57 -11 -81 11
-12 11 -28 20 -37 20 -8 0 -15 5 -15 11 0 7 10 9 28 5 17 -4 22 -3 14 2 -7 5
-14 26 -15 46 l-2 37 -72 -3 c-39 -2 -71 -1 -71 2 0 3 -1 10 -2 15 -2 6 -4 30
-5 55 -1 25 -3 55 -4 68 0 13 -11 27 -26 34 -14 6 -25 18 -25 25 0 19 -25 43
-43 43 -17 0 -27 20 -28 58 l-1 27 -8 -29 c-5 -16 -7 -33 -5 -37 7 -10 -5 -39
-15 -39 -18 0 -20 40 -4 65 9 14 13 29 9 33 -4 4 -9 3 -12 -3 -11 -30 -22 -40
-34 -28 -8 8 -5 15 14 28 29 19 39 57 23 90 -9 19 -20 24 -63 27 -73 4 -85 -2
-39 -21 34 -15 37 -18 22 -30 -14 -12 -16 -12 -10 3 4 9 1 16 -6 16 -15 0 -5
-48 16 -71 8 -8 14 -25 14 -37 0 -11 4 -23 8 -26 5 -3 39 -66 76 -141 37 -74
72 -133 77 -129 5 3 6 -1 3 -9 -5 -15 32 -87 46 -87 4 0 11 -12 15 -27 3 -15
15 -39 26 -54 10 -15 19 -34 19 -42 0 -9 4 -19 10 -22 5 -3 17 -21 26 -40 9
-19 21 -35 26 -35 5 0 7 -4 4 -9 -3 -5 1 -14 9 -21 8 -7 15 -21 15 -31 0 -10
6 -22 13 -26 14 -8 47 -73 47 -92 0 -6 9 -16 20 -23 11 -7 20 -21 20 -31 0
-10 11 -28 25 -41 14 -13 25 -27 25 -32 0 -5 11 -26 25 -46 28 -41 30 -48 15
-48 -5 0 -10 5 -10 11 0 7 -11 22 -25 35 -14 13 -25 30 -25 37 0 8 -7 17 -15
21 -8 3 -15 12 -15 20 0 7 -7 16 -15 20 -8 3 -14 9 -13 13 3 14 -21 63 -32 63
-5 0 -12 11 -16 25 -3 14 -10 22 -15 19 -5 -3 -9 3 -9 13 0 11 -7 28 -16 39
-8 10 -13 13 -9 7 3 -7 1 -13 -6 -13 -6 0 -9 8 -7 18 6 21 -31 77 -51 77 -8 0
-16 7 -18 15 -4 13 -3 13 6 0 5 -8 14 -11 18 -6 4 4 -3 17 -17 28 -14 11 -25
25 -26 32 -1 23 -16 56 -25 56 -5 0 -9 7 -9 16 0 9 -5 12 -12 8 -7 -5 -9 -2
-5 9 4 10 0 18 -11 21 -9 4 -26 26 -37 51 -20 46 -30 54 -38 33 -3 -7 -3 1 0
17 5 31 -29 105 -48 105 -5 0 -9 14 -9 30 0 17 -8 43 -19 58 -10 15 -26 39
-35 55 -21 34 -34 34 -42 1 -4 -17 -2 -29 7 -35 10 -6 11 -11 3 -16 -6 -5 -14
-15 -18 -23 -3 -8 -4 -3 -1 13 6 29 -3 35 -24 15 -11 -11 -14 -10 -18 0 -3 9
-13 5 -29 -14 -17 -18 -29 -23 -37 -16 -7 5 -22 8 -34 7 -13 -1 -23 3 -23 8 0
5 9 7 21 4 43 -11 -2 22 -53 39 -50 16 -112 69 -102 85 3 5 -2 6 -10 3 -8 -3
-17 -13 -19 -22 -3 -15 -5 -14 -11 3 -20 54 -32 72 -63 100 -26 23 -35 40 -36
68 -1 20 -8 39 -14 42 -15 5 -17 45 -3 45 6 0 10 -9 10 -20 0 -11 5 -20 11
-20 6 0 8 9 4 20 -4 11 -2 20 4 20 6 0 11 -9 11 -21 0 -18 2 -19 15 -5 8 8 15
22 15 30 0 9 8 16 20 16 11 0 20 5 20 10 0 6 8 10 18 10 30 0 64 47 60 83 -2
27 -8 33 -32 35 -23 3 -27 8 -24 25 4 20 1 22 -33 19 -28 -3 -46 2 -65 17 -16
13 -35 19 -46 16 -14 -5 -18 -1 -18 20 0 14 5 36 11 47 9 17 8 24 -5 33 -20
15 -21 25 -1 25 11 0 15 11 15 40 0 33 3 40 20 40 17 0 20 -7 20 -40 0 -22 -4
-40 -9 -40 -14 0 -23 -36 -16 -59 3 -10 15 -21 27 -24 14 -4 17 -2 11 4 -11
11 3 118 18 133 16 18 10 24 -31 31 -40 7 -58 35 -22 35 10 0 22 3 26 7 4 4
17 8 28 8 12 0 23 6 25 13 5 14 -21 16 -46 2 -11 -6 -30 -6 -49 -1 -25 8 -32
6 -35 -7 -2 -10 -4 7 -5 37 -2 59 -14 83 -33 64 -9 -9 -9 -23 0 -57 6 -25 10
-60 10 -78 -1 -18 -3 -25 -6 -15 -2 9 -9 14 -15 11 -6 -4 -8 -2 -4 4 3 6 2 13
-4 17 -6 4 -8 10 -5 15 3 5 1 11 -4 15 -6 3 -13 -25 -17 -65 -4 -39 -9 -69
-11 -66 -8 7 -25 79 -25 104 0 12 -4 22 -9 22 -5 0 -9 9 -9 20 0 20 0 20 19 1
11 -11 21 -28 24 -38 2 -10 3 -1 0 20 -2 22 1 36 6 33 5 -3 11 8 13 24 3 16 0
32 -6 34 -6 2 -4 5 4 5 8 1 32 6 53 12 32 9 37 14 35 37 -3 37 8 51 32 45 14
-4 20 -1 18 8 -2 7 5 15 15 17 19 4 24 -24 5 -30 -7 -3 2 -18 23 -39 19 -19
41 -49 48 -66 7 -18 18 -33 23 -33 5 0 7 -8 4 -18 -4 -13 0 -18 14 -19 11 -1
18 2 15 6 -2 5 0 34 6 66 13 71 7 94 -18 69 -17 -17 -18 -17 -21 5 -4 28 -5
27 41 34 30 5 37 3 37 -10 0 -26 9 -10 14 23 6 50 25 86 43 82 21 -4 29 -28 9
-28 -21 0 -29 -17 -22 -44 4 -17 13 -23 31 -23 14 0 28 4 31 8 3 5 10 6 16 3
7 -4 8 -2 4 4 -4 7 -3 12 3 12 5 0 13 15 16 33 9 41 43 107 55 107 5 0 12 -4
15 -10z m-1575 -300 c0 -40 0 -40 -39 -40 -40 0 -50 -13 -51 -63 0 -16 2 -17
15 -3 8 8 15 22 15 30 0 11 9 16 30 16 24 0 30 -4 30 -22 0 -13 4 -29 9 -37 6
-9 4 -20 -6 -30 -14 -13 -17 -13 -34 8 -11 13 -19 18 -19 12 0 -6 -9 -11 -19
-11 -11 0 -21 -6 -24 -12 -8 -22 -19 -1 -20 37 -1 21 5 40 12 45 8 4 16 31 19
59 l5 51 38 0 c39 0 39 0 39 -40z m300 -30 c0 -5 -5 -10 -11 -10 -5 0 -7 -4
-4 -10 11 -19 35 -10 36 13 0 17 3 15 13 -12 15 -41 28 -48 50 -26 15 15 16
15 16 -3 0 -10 11 -25 25 -32 14 -7 25 -22 25 -32 0 -10 7 -18 15 -18 8 0 15
9 15 20 0 27 28 25 39 -3 5 -13 16 -29 25 -36 9 -7 16 -22 16 -32 0 -12 7 -19
19 -19 46 0 71 -33 36 -46 -10 -4 -15 -20 -15 -45 0 -29 -4 -39 -16 -39 -14 0
-15 -10 -9 -77 4 -43 11 -79 16 -81 21 -8 7 -23 -18 -20 -16 2 -27 8 -25 16 1
6 -4 12 -11 12 -8 0 -14 7 -14 15 0 8 9 15 19 15 34 0 18 20 -26 32 -25 6 -43
15 -40 19 2 4 -2 21 -9 39 -11 25 -16 29 -25 17 -7 -8 -11 -16 -9 -18 1 -2 -4
3 -11 11 -11 12 -10 16 2 18 9 2 16 8 16 13 0 20 39 8 43 -13 2 -13 3 -6 2 15
-4 50 -8 53 -46 34 -18 -8 -38 -13 -46 -10 -15 6 -18 43 -3 43 6 0 10 -4 10
-10 0 -17 30 -11 37 7 4 11 -3 24 -22 38 -15 13 -24 28 -21 34 5 7 -4 11 -23
11 -17 0 -31 5 -31 11 0 5 -4 7 -10 4 -6 -4 -10 7 -10 26 0 31 -1 32 -16 13
-15 -18 -15 -18 -9 11 4 17 11 32 16 33 15 6 10 22 -7 22 -9 0 -29 9 -44 20
-24 17 -29 18 -34 5 -6 -17 -26 -20 -26 -4 0 5 5 7 10 4 6 -3 10 3 10 14 0 18
6 21 40 21 22 0 40 -4 40 -10z m4430 -670 c4 -3 14 -18 22 -35 9 -16 36 -70
62 -118 53 -100 57 -127 23 -127 -48 0 -147 142 -163 235 -9 52 -8 58 9 61 11
1 22 5 25 9 4 3 8 0 11 -7 2 -7 7 -15 11 -18z m-3274 -385 c4 -8 14 -15 24
-15 11 0 21 -11 26 -27 5 -21 8 -24 11 -10 4 13 15 17 49 17 56 0 87 -25 82
-66 -3 -27 -6 -29 -40 -27 -40 3 -50 -10 -21 -26 10 -5 15 -12 11 -16 -3 -4
-18 1 -32 10 -27 18 -30 50 -7 64 10 6 9 10 -4 15 -26 10 -55 7 -55 -5 0 -6 7
-9 15 -6 8 4 17 2 20 -2 11 -19 -24 -19 -41 0 -9 10 -28 19 -41 19 -17 0 -22
4 -16 13 12 19 14 45 3 52 -6 3 -10 10 -10 16 0 15 20 10 26 -6z m4630 -132
c19 -26 17 -86 -4 -114 -16 -21 -17 -27 -6 -49 l13 -25 7 33 c11 53 29 36 27
-25 -1 -7 4 -13 11 -13 6 -1 -2 -6 -18 -13 -39 -17 -96 -10 -97 12 -1 9 -1 19
0 24 0 4 -3 7 -8 7 -5 0 -11 9 -14 19 -3 13 0 18 8 15 7 -3 17 0 21 8 11 17 5
90 -9 107 -9 11 -9 13 -1 8 7 -4 17 0 24 8 16 20 30 19 46 -2z m-326 -75 c0
-7 -15 -30 -34 -52 -19 -21 -42 -53 -50 -71 -9 -18 -22 -38 -31 -45 -8 -7 -15
-19 -15 -26 0 -8 -9 -19 -20 -26 -11 -7 -20 -18 -20 -25 0 -7 -4 -13 -10 -13
-5 0 -10 -6 -10 -14 0 -7 -10 -24 -22 -38 -23 -24 -76 -93 -213 -273 -37 -49
-85 -108 -106 -130 -20 -22 -65 -75 -98 -117 -34 -43 -64 -78 -66 -78 -11 0
51 106 76 130 32 30 258 308 338 415 46 61 89 117 96 126 7 9 25 39 41 65 16
27 33 54 39 59 10 9 33 41 60 84 9 14 36 40 43 41 1 0 2 -6 2 -12z m607 -492
c-5 -13 14 -27 55 -40 10 -3 43 4 75 14 52 17 124 28 83 13 -8 -3 -17 -9 -20
-12 -7 -9 -74 -31 -94 -31 -10 0 -24 -7 -32 -15 -9 -8 -24 -15 -35 -15 -11 0
-18 -4 -15 -9 3 -5 -1 -11 -9 -15 -17 -6 -21 -36 -5 -36 6 0 10 -4 10 -10 0
-17 -28 -11 -39 8 -9 15 -12 15 -21 2 -9 -13 -12 -13 -21 3 -10 18 -12 18 -38
-6 -23 -21 -35 -24 -95 -23 -45 1 -71 5 -73 13 -3 9 4 11 24 8 15 -3 35 -1 43
4 13 9 12 12 -5 25 -18 13 -18 15 -3 21 23 9 54 1 51 -13 -2 -7 3 -12 10 -12
7 0 13 9 13 19 0 11 -4 18 -8 15 -4 -2 -10 2 -15 10 -9 15 -63 11 -63 -5 0 -5
-6 -9 -14 -9 -8 0 -13 -8 -12 -17 0 -10 -7 -19 -18 -21 -15 -3 -18 0 -14 16 5
16 2 19 -11 15 -43 -16 -55 -43 -16 -38 19 2 25 -2 25 -17 0 -11 9 -22 19 -25
22 -6 17 -33 -5 -33 -8 0 -14 -4 -14 -10 0 -15 -49 -12 -66 4 -16 17 -19 30
-4 21 6 -3 10 -1 10 5 0 6 5 8 11 4 8 -5 8 -1 0 14 -6 11 -11 32 -11 46 0 20
-5 26 -22 27 l-23 2 23 4 c12 2 22 8 22 12 0 5 26 11 58 14 31 3 77 11 102 16
25 6 56 13 70 15 40 7 75 23 89 40 16 20 35 21 28 2z m-200 -362 c10 -22 10
-24 -8 -19 -11 4 -19 2 -19 -4 0 -6 3 -11 8 -11 11 0 34 -57 30 -77 -3 -15
-15 -18 -77 -20 -41 -1 -77 -7 -81 -12 -6 -11 -87 -7 -98 4 -4 3 0 10 8 15 16
10 10 12 -45 14 -12 1 -21 9 -23 23 -3 17 4 23 30 28 18 4 42 14 53 21 11 8
33 14 50 14 20 0 26 -3 17 -9 -10 -6 -3 -11 23 -15 40 -8 58 4 48 31 -3 9 3
13 21 13 15 0 29 7 32 15 9 21 17 18 31 -11z"/>
<path d="M11370 10322 c0 -7 -11 -22 -25 -34 -27 -23 -33 -48 -12 -48 9 0 11
-12 9 -40 -5 -52 -22 -52 -22 0 0 25 -7 46 -19 57 -10 10 -21 25 -24 33 -3 8
-6 2 -6 -14 -1 -28 -2 -29 -16 -10 -14 19 -14 18 -15 -3 0 -13 5 -23 10 -23 6
0 10 -12 10 -27 0 -48 11 -75 25 -63 9 8 14 5 18 -10 10 -39 -5 -66 -35 -61
-5 0 -8 -17 -8 -39 0 -33 3 -40 20 -40 17 0 20 7 20 40 0 29 4 40 15 40 11 0
15 -11 15 -36 0 -19 7 -42 15 -50 13 -14 15 -10 15 34 0 35 -4 52 -15 56 -20
7 -19 36 2 51 12 9 16 25 14 63 -1 37 3 54 16 68 17 17 17 17 1 11 -21 -7 -22
-3 -7 25 6 11 8 22 5 26 -3 3 -6 0 -6 -6z"/>
<path d="M11191 9983 c-1 -42 -6 -75 -12 -79 -8 -5 -10 -37 -6 -110 6 -94 12
-121 39 -181 11 -22 4 -43 -14 -43 -6 0 -8 9 -5 20 3 11 1 18 -3 15 -5 -3 -10
14 -12 37 -4 42 -4 42 -16 18 -12 -25 -12 -25 -7 5 15 75 17 95 7 95 -6 0 -11
-8 -11 -17 1 -46 -15 -163 -21 -163 -4 0 -10 -12 -13 -27 -3 -16 -11 -53 -18
-83 -15 -70 -16 -123 -1 -128 7 -2 9 -15 5 -35 l-6 -32 32 32 c31 33 40 66 21
78 -13 8 -13 55 -1 55 5 0 13 -9 16 -20 9 -27 25 -25 25 3 0 45 11 65 31 60
17 -5 19 -1 15 22 -5 26 -3 27 27 22 17 -2 40 1 50 7 14 8 20 8 28 -4 8 -12 9
-10 4 6 -3 13 0 28 9 37 17 17 11 27 -16 27 -10 0 -18 5 -18 11 0 6 7 9 15 5
11 -4 15 1 15 18 0 14 -6 26 -12 29 -9 3 -5 13 11 31 29 31 21 45 -13 22 -30
-19 -53 -21 -59 -3 -4 10 -7 10 -18 0 -7 -7 -23 -13 -36 -13 -25 0 -26 3 -24
65 3 66 12 100 23 84 8 -12 9 -11 5 1 -2 8 -12 14 -21 14 -19 -2 -20 12 -6 69
7 28 8 56 1 82 -8 38 -9 36 -10 -32z"/>
<path d="M11165 9260 c-7 -24 -23 -25 -49 -5 -31 23 -36 18 -36 -33 0 -26 -5
-53 -11 -59 -6 -6 -11 -30 -11 -54 1 -43 14 -69 26 -50 4 6 2 11 -4 11 -8 0
-8 6 0 21 8 14 15 17 24 10 7 -6 17 -6 26 -1 9 5 19 5 27 -1 7 -6 17 -8 22 -5
6 4 17 -4 26 -17 12 -18 13 -31 6 -50 -16 -42 -10 -67 16 -67 13 0 23 5 23 10
0 6 7 10 15 10 18 0 20 31 3 48 -9 9 -9 12 3 12 11 0 14 10 11 40 -2 22 -8 42
-12 45 -5 3 -6 -10 -3 -30 6 -35 -8 -48 -23 -23 -10 15 -6 89 5 103 5 5 8 21
7 35 -1 18 -6 24 -19 22 -12 -2 -17 4 -17 20 0 31 -46 38 -55 8z"/>
<path d="M7715 10963 c-9 -21 -21 -58 -27 -83 -6 -25 -46 -151 -88 -280 -43
-129 -87 -287 -99 -350 -12 -63 -28 -146 -36 -185 -7 -38 -16 -88 -20 -110
-10 -65 -25 -93 -56 -104 -29 -10 -29 -10 -23 -73 3 -35 10 -79 15 -98 5 -19
9 -46 9 -59 0 -13 11 -47 24 -75 14 -28 33 -73 43 -101 31 -80 50 -55 52 68 1
76 9 79 44 14 20 -39 22 -55 22 -207 0 -141 -3 -172 -19 -208 -11 -23 -17 -44
-15 -47 6 -6 117 61 148 88 31 29 75 94 107 157 14 27 28 50 33 50 7 0 85
-151 115 -223 13 -32 14 -47 5 -82 -16 -63 -6 -76 21 -27 24 43 44 56 38 25
-2 -10 5 -26 14 -35 10 -10 18 -33 18 -52 0 -18 7 -39 15 -46 18 -15 21 -8 29
70 3 34 12 60 22 67 10 7 17 30 19 60 4 75 27 288 32 292 2 3 16 -11 32 -30
16 -19 32 -31 35 -28 4 4 2 27 -4 53 -8 38 -8 51 5 69 9 13 15 44 15 77 0 30
10 89 21 130 12 41 29 108 39 147 10 40 42 117 71 171 l53 99 -37 74 c-72 147
-160 294 -201 335 -73 73 -157 165 -226 248 -119 141 -139 167 -145 185 -3 10
-17 23 -30 29 -14 6 -25 16 -25 22 0 25 -31 6 -45 -27z"/>
<path d="M8200 6702 c0 -4 5 -13 11 -19 18 -18 1 -50 -34 -60 -20 -6 -31 -15
-29 -25 1 -8 -5 -21 -13 -28 -15 -13 -21 -40 -8 -40 4 0 23 11 43 25 26 18 55
26 108 31 48 5 72 11 72 20 0 7 3 20 7 30 5 13 3 16 -9 11 -11 -4 -18 1 -21
15 -7 26 -27 14 -27 -17 0 -12 -7 -26 -16 -29 -22 -9 -24 -8 -18 8 3 8 1 17
-5 21 -6 3 -11 13 -11 22 0 9 -8 22 -17 29 -21 15 -33 18 -33 6z"/>
<path d="M11187 6595 c-19 -19 -11 -52 14 -58 28 -8 23 -34 -17 -90 -26 -36
-31 -48 -18 -42 63 25 169 43 268 44 103 1 186 21 186 43 0 10 5 18 10 18 6 0
10 5 10 10 0 7 -6 7 -17 0 -24 -13 -93 -40 -104 -40 -14 0 -42 50 -49 88 l-7
37 -11 -41 c-7 -22 -21 -49 -33 -60 -24 -21 -101 -29 -131 -13 -25 13 -58 68
-58 97 0 25 -21 29 -43 7z"/>
<path d="M11885 6580 c-3 -5 -17 -10 -30 -10 -13 0 -28 -7 -33 -17 -7 -12 -18
-14 -40 -10 -34 7 -47 0 -31 -19 8 -9 5 -16 -10 -24 -18 -9 -19 -14 -10 -31
14 -27 15 -120 0 -145 -21 -37 -91 -256 -97 -307 -4 -29 -11 -57 -16 -64 -5
-6 -17 -40 -27 -75 -10 -34 -34 -103 -54 -153 -53 -136 -51 -132 -29 -112 29
26 40 21 64 -28 12 -25 28 -45 36 -45 14 0 12 6 -22 55 -36 52 -31 135 11 185
l26 31 31 -38 c17 -20 30 -43 28 -50 -2 -7 9 -2 23 12 28 29 31 36 13 30 -13
-4 -52 39 -64 68 -4 10 0 15 13 14 14 -2 17 4 15 28 -3 24 -1 28 9 18 7 -7 26
-13 41 -13 23 0 28 4 28 24 0 32 -16 42 -29 19 -15 -28 -37 -2 -22 26 14 25
24 26 41 6 14 -17 40 -20 40 -5 0 6 -4 10 -10 10 -19 0 -60 86 -59 126 1 60
12 79 45 79 27 0 29 3 36 50 4 27 14 69 23 93 14 34 21 42 36 37 17 -6 18 -3
9 20 -16 43 -11 88 16 143 24 48 54 70 54 40 0 -7 9 -24 20 -38 16 -21 20 -22
20 -7 0 54 -73 113 -95 77z"/>
<path d="M10854 6405 c-3 -8 -35 -29 -69 -47 -61 -31 -65 -31 -83 -15 -19 17
-20 17 -25 -3 -4 -18 -13 -20 -72 -20 -53 0 -71 -4 -81 -17 -11 -15 -16 -16
-33 -6 -13 8 -22 9 -26 3 -15 -25 -85 -42 -180 -45 -98 -4 -155 -16 -155 -33
0 -5 -10 -14 -22 -20 -23 -10 -22 -11 5 -11 15 -1 128 19 250 44 122 25 254
51 292 59 39 7 115 19 170 26 55 7 109 16 120 20 17 6 16 8 -10 21 -17 8 -34
24 -40 37 -11 25 -33 29 -41 7z"/>
<path d="M4473 6316 c-39 -38 -42 -50 -9 -42 19 5 26 1 36 -24 7 -16 10 -36 7
-43 -3 -9 9 -20 34 -31 22 -10 56 -34 75 -54 l36 -37 -57 -3 c-66 -4 -72 -24
-9 -33 76 -11 145 -65 169 -135 16 -46 6 -53 -51 -34 -26 9 -39 9 -47 1 -11
-11 -13 -10 58 -31 22 -7 53 -24 69 -39 32 -29 65 -94 66 -128 0 -12 8 -28 18
-35 26 -19 84 -118 78 -133 -4 -12 22 -40 66 -74 14 -11 14 -6 -4 41 -11 29
-30 67 -42 83 -47 64 -116 193 -116 218 0 14 -14 48 -31 75 -32 51 -78 188
-86 255 -3 21 2 54 11 77 10 25 12 41 5 45 -5 4 -41 7 -78 7 -60 0 -68 2 -64
17 3 12 -7 23 -34 36 -21 11 -42 19 -48 20 -5 0 -12 8 -15 17 -4 14 -10 11
-37 -16z"/>
<path d="M6530 6204 c0 -10 -7 -14 -22 -12 -14 2 -23 -2 -23 -11 0 -23 -22
-24 -28 -1 -3 11 -11 20 -17 20 -8 0 -10 -9 -6 -25 4 -14 2 -25 -4 -25 -5 0
-10 -4 -10 -10 0 -5 12 -10 26 -10 14 0 50 -12 81 -26 43 -21 64 -25 98 -21
33 5 44 3 49 -8 3 -8 11 -15 18 -15 8 0 21 -9 31 -21 21 -24 82 -24 82 1 0 9
-7 14 -17 12 -23 -4 -57 15 -90 50 -24 26 -58 30 -58 7 0 -5 -7 -9 -15 -9 -8
0 -15 5 -15 10 0 6 -15 10 -34 10 l-34 0 9 41 c5 22 7 44 4 50 -10 14 -25 11
-25 -7z"/>
<path d="M9680 6201 c0 -10 -7 -21 -15 -25 -8 -3 -15 -12 -15 -21 0 -17 25
-21 35 -5 13 22 23 8 22 -30 -2 -37 -11 -52 -19 -31 -1 4 -14 12 -28 16 -21 7
-23 6 -12 -7 16 -20 3 -30 -57 -47 -23 -7 -50 -15 -60 -18 -11 -4 -10 -1 4 10
23 18 13 35 -25 39 -21 3 -25 -1 -26 -25 -1 -15 -9 -36 -19 -47 -17 -18 -19
-19 -30 -3 -10 14 -17 15 -36 7 -30 -14 -49 -7 -49 16 0 20 -17 36 -27 26 -3
-3 0 -12 7 -21 16 -19 14 -21 -30 -32 -29 -8 -35 -14 -33 -35 2 -29 -29 -48
-75 -48 l-27 1 28 22 c49 41 25 67 -26 27 -22 -17 -29 -19 -46 -8 -15 9 -23 9
-35 -1 -9 -8 -16 -19 -16 -26 0 -8 -5 -15 -12 -17 -23 -8 3 -28 28 -22 26 7
31 -4 12 -25 -11 -10 -10 -15 5 -25 9 -7 17 -21 17 -30 0 -18 15 -22 25 -6 11
17 239 123 410 189 88 35 169 67 180 72 11 4 44 16 73 25 65 20 75 34 25 34
-42 0 -80 21 -113 63 -25 32 -40 35 -40 8z"/>
<path d="M8133 6057 c-13 -21 -41 -27 -68 -15 -20 9 -28 8 -42 -4 -10 -8 -31
-20 -48 -25 -32 -11 -105 -75 -105 -92 0 -19 26 -12 49 13 18 20 30 23 76 21
31 -2 62 -8 70 -15 12 -10 15 -9 15 5 0 26 53 95 73 95 9 0 17 7 17 15 0 19
-26 20 -37 2z"/>
<path d="M7130 5941 c-8 -5 -18 -7 -22 -4 -5 2 -15 0 -23 -7 -10 -8 -18 -8
-34 2 -11 7 -24 9 -28 4 -11 -10 34 -46 58 -46 10 0 19 -4 19 -9 0 -5 31 -25
70 -44 76 -39 205 -121 215 -137 9 -14 15 -230 7 -230 -4 0 -12 -12 -19 -26
-10 -22 -9 -25 5 -23 33 3 42 -1 42 -20 0 -11 -10 -27 -22 -35 -12 -9 -16 -16
-9 -16 9 0 11 -8 7 -25 -5 -18 -2 -25 9 -25 8 0 15 7 15 16 0 8 17 22 38 31
26 12 32 18 20 20 -14 3 -16 11 -11 36 3 18 10 35 16 38 8 6 2 62 -10 82 -3 5
-13 1 -23 -8 -15 -14 -18 -14 -30 0 -11 13 -8 21 23 49 21 19 37 41 37 50 0
21 57 99 78 107 13 5 9 10 -18 21 -19 8 -38 11 -41 6 -6 -9 -90 31 -102 49
-17 28 -40 43 -77 53 -43 12 -54 27 -17 26 16 -1 22 5 22 19 0 17 -8 20 -47
23 -28 1 -48 -2 -48 -8 0 -5 -9 -10 -20 -10 -11 0 -29 -5 -39 -12 -20 -12 -56
-4 -47 11 4 5 20 12 37 16 16 4 28 12 26 18 -5 15 -38 20 -57 8z"/>
<path d="M9296 5121 c-7 -11 14 -51 26 -51 5 0 8 -8 7 -17 0 -15 -3 -14 -16 5
-17 25 -49 31 -40 7 4 -8 2 -17 -4 -20 -14 -9 -1 -25 16 -19 10 4 18 -3 25
-20 5 -15 17 -26 29 -26 10 0 24 -7 31 -15 17 -20 27 -19 35 5 3 11 19 27 36
37 16 9 29 20 29 24 0 4 -17 13 -37 20 -42 13 -77 33 -109 62 -14 11 -24 15
-28 8z"/>
<path d="M5720 4953 c0 -4 9 -19 19 -33 16 -20 28 -25 74 -25 70 -1 131 -36
121 -69 -11 -36 -10 -39 16 -46 33 -8 60 -1 60 16 0 8 7 14 15 14 8 0 15 7 15
15 0 12 -7 14 -26 9 -22 -6 -25 -4 -22 12 3 15 12 19 43 17 22 -1 57 -8 77
-14 31 -10 41 -10 55 2 10 9 31 21 46 27 43 19 26 27 -60 30 -43 1 -125 7
-183 14 -58 6 -118 12 -135 12 -16 1 -34 4 -40 7 -18 12 -75 21 -75 12z"/>
</g>
</svg>
