<?xml version="1.0" standalone="no"?>
<!DOCTYPE svg PUBLIC "-//W3C//DTD SVG 20010904//EN"
 "http://www.w3.org/TR/2001/REC-SVG-20010904/DTD/svg10.dtd">
<svg version="1.0" xmlns="http://www.w3.org/2000/svg"
 width="1050.000000pt" height="1050.000000pt" viewBox="0 0 1050.000000 1050.000000"
 preserveAspectRatio="xMidYMid meet">
<metadata>
Created by potrace 1.15, written by Peter Selinger 2001-2017
</metadata>
<g transform="translate(0.000000,1050.000000) scale(0.100000,-0.100000)"
fill="#000000" stroke="none">
<path d="M7163 8259 c-284 -27 -610 -188 -862 -426 l-75 -70 -85 34 c-418 164
-942 195 -1483 88 -121 -24 -332 -79 -411 -107 l-38 -14 -97 96 c-198 194
-438 319 -702 366 -115 20 -345 23 -448 5 l-74 -13 49 -33 c94 -64 204 -226
339 -500 141 -285 173 -419 181 -744 l6 -203 27 83 c49 152 112 251 233 366
123 117 270 191 445 224 102 19 290 7 392 -26 235 -75 402 -214 514 -426 165
-312 123 -690 -107 -960 -29 -34 -56 -67 -61 -74 -6 -8 34 -84 129 -239 76
-124 140 -224 143 -221 2 2 66 114 141 249 l137 245 45 -42 c26 -25 21 -18
-13 18 -119 127 -200 277 -234 435 -21 98 -18 278 6 377 78 327 349 585 679
647 285 54 555 -30 767 -239 107 -106 169 -204 216 -345 31 -92 32 -101 33
-265 0 -166 -1 -172 -33 -265 -47 -135 -111 -239 -212 -341 -260 -262 -647
-331 -980 -173 -41 19 -70 31 -65 26 19 -19 170 -90 225 -106 72 -22 201 -31
266 -19 l51 10 13 -86 c68 -469 239 -1023 411 -1336 166 -301 382 -507 577
-550 17 -3 32 -8 32 -10 0 -13 -66 -146 -105 -211 -68 -112 -146 -213 -245
-318 -84 -90 -85 -90 -21 -36 134 114 272 279 415 495 119 179 187 365 221
608 17 121 20 426 4 565 -38 344 -147 753 -294 1101 -126 298 -204 682 -223
1088 -4 81 -4 180 -1 218 12 136 119 397 254 620 59 98 196 304 242 365 33 43
34 44 13 52 -19 7 -236 30 -250 27 -3 -1 -42 -5 -87 -10z"/>
<path d="M3422 6445 c-37 -222 -98 -448 -190 -705 -37 -103 -148 -541 -196
-775 -57 -277 -67 -374 -55 -506 44 -492 200 -876 480 -1182 62 -68 195 -186
254 -226 11 -8 0 4 -25 25 -171 146 -324 319 -426 480 l-55 89 48 40 c91 75
245 230 317 320 342 424 548 955 606 1564 13 131 11 140 -34 141 -38 0 -203
62 -268 101 -152 89 -274 223 -347 379 -49 106 -71 190 -80 305 l-6 89 -23
-139z"/>
<path d="M4514 6469 c-4 -8 -3 -10 4 -5 7 4 20 3 29 -3 16 -8 15 -10 -9 -16
-14 -4 -38 -20 -54 -36 -22 -23 -30 -26 -43 -17 -13 10 -14 10 -4 -2 10 -11 9
-18 -5 -34 -9 -11 -11 -16 -5 -12 9 5 11 2 7 -8 -3 -9 -9 -14 -13 -12 -6 4 -7
-116 -1 -139 1 -5 2 -13 1 -17 0 -5 4 -8 11 -8 6 0 3 -9 -7 -20 -13 -15 -15
-24 -8 -31 8 -8 13 -7 18 2 6 8 4 10 -5 4 -8 -5 -11 -3 -8 5 5 17 28 25 28 11
0 -19 44 -62 83 -83 26 -13 58 -19 95 -19 89 1 93 1 86 14 -4 7 -4 9 1 5 4 -4
23 2 42 13 26 16 32 17 27 5 -3 -9 -11 -13 -18 -9 -6 4 -5 -1 3 -10 18 -23 29
-13 25 23 -3 24 1 33 19 40 13 5 16 9 7 10 -12 0 -11 3 3 14 10 8 19 18 20 23
3 11 17 5 42 -15 20 -17 20 -17 2 4 -9 11 -14 24 -10 28 4 4 0 4 -9 1 -14 -6
-16 -1 -13 32 2 21 6 52 9 68 5 24 4 26 -3 10 l-10 -20 -1 20 c-2 11 -2 26 -1
33 1 6 -3 12 -9 12 -5 0 -10 5 -10 12 0 6 -11 26 -24 43 -17 21 -22 36 -15 44
6 7 5 8 -2 2 -7 -6 -25 -2 -50 11 -25 13 -63 21 -111 23 -40 2 -80 6 -89 10
-10 3 -20 1 -25 -6z"/>
<path d="M5759 6473 c-1 -5 -1 -10 -1 -13 0 -3 -18 -6 -41 -8 -22 -1 -47 -8
-54 -14 -9 -7 -17 -7 -28 2 -8 6 -20 10 -27 7 -8 -4 -7 -6 5 -6 25 -1 21 -16
-9 -36 -15 -9 -23 -12 -20 -6 4 6 5 11 2 11 -3 0 -12 -13 -21 -30 -9 -16 -21
-30 -28 -30 -8 0 -8 3 2 9 9 6 10 11 2 15 -6 4 -9 11 -6 16 3 5 1 11 -3 14
-11 6 -8 -57 3 -75 5 -7 4 -10 -3 -5 -7 4 -10 -23 -9 -88 2 -76 6 -98 20 -114
12 -13 16 -26 11 -34 -13 -21 -13 -36 1 -48 15 -12 16 5 2 28 -11 16 3 15 26
-2 19 -15 24 -31 5 -20 -7 4 -8 3 -4 -5 6 -8 12 -9 20 -2 7 6 17 7 22 2 16
-15 100 -39 127 -36 14 2 40 10 57 18 19 10 28 11 24 4 -5 -8 -3 -8 7 1 7 6
22 12 34 13 11 0 15 3 8 6 -14 5 7 31 42 52 15 10 16 11 2 7 -15 -5 -15 -3 3
22 11 15 23 38 26 52 3 14 8 36 11 49 4 18 3 22 -7 16 -8 -5 -11 -3 -8 6 3 8
-1 28 -8 45 -7 17 -11 34 -9 36 3 3 -4 13 -15 23 -19 17 -29 52 -12 41 5 -3 9
1 9 8 0 11 -5 11 -17 4 -12 -8 -26 -5 -53 10 -25 13 -33 22 -25 26 7 3 1 4
-13 1 -26 -5 -56 15 -42 28 3 4 3 7 0 7 -4 0 -8 -3 -8 -7z"/>
<path d="M4775 4347 c-16 -8 -49 -32 -72 -55 -76 -74 -80 -190 -12 -362 55
-139 106 -210 323 -452 115 -128 215 -233 221 -233 13 0 380 449 443 541 96
142 136 256 130 374 -3 84 -17 113 -72 154 -41 31 -145 29 -211 -4 -58 -30
-184 -152 -239 -232 l-38 -57 -41 52 c-23 29 -78 88 -122 132 -124 122 -239
174 -310 142z"/>
</g>
</svg>
