<?xml version="1.0" standalone="no"?>
<!DOCTYPE svg PUBLIC "-//W3C//DTD SVG 20010904//EN"
 "http://www.w3.org/TR/2001/REC-SVG-20010904/DTD/svg10.dtd">
<svg version="1.0" xmlns="http://www.w3.org/2000/svg"
 width="700.000000pt" height="500.000000pt" viewBox="0 0 700.000000 500.000000"
 preserveAspectRatio="xMidYMid meet">
<metadata>
Created by potrace 1.15, written by Peter Selinger 2001-2017
</metadata>
<g transform="translate(0.000000,500.000000) scale(0.100000,-0.100000)"
fill="#000000" stroke="none">
<path d="M3645 3635 c-43 -19 -12 -29 57 -17 29 5 145 6 258 3 l205 -6 80 -40
c44 -21 91 -42 105 -46 24 -8 24 -7 5 7 -11 9 -38 26 -59 38 l-39 23 50 -4
c58 -6 284 14 321 28 18 7 22 13 15 20 -8 8 -42 6 -114 -6 -118 -19 -242 -22
-280 -7 -19 7 -30 7 -37 0 -8 -8 -23 -8 -54 2 -63 19 -472 23 -513 5z"/>
<path d="M3142 3565 c-24 -13 -87 -48 -140 -76 -53 -28 -126 -71 -162 -94 -36
-24 -98 -61 -137 -84 -71 -41 -90 -61 -57 -61 17 0 91 41 229 129 50 32 142
86 205 121 63 34 122 69 130 76 25 24 -20 17 -68 -11z"/>
<path d="M4835 3400 c-3 -6 19 -26 50 -45 30 -20 102 -82 159 -139 87 -86 110
-115 144 -187 23 -46 52 -104 65 -129 14 -25 32 -88 42 -140 10 -52 27 -117
38 -143 22 -52 89 -119 137 -136 45 -15 44 3 -1 28 -49 28 -66 53 -79 117 -35
182 -41 198 -132 364 -53 97 -116 176 -220 275 -86 81 -193 152 -203 135z"/>
<path d="M2500 3312 c0 -13 -92 -102 -106 -102 -6 0 -31 -16 -56 -34 -66 -51
-162 -100 -253 -132 -44 -15 -82 -29 -85 -32 -3 -2 3 -10 13 -17 15 -11 28
-10 80 5 111 32 207 84 281 152 11 10 24 18 30 18 5 0 18 7 28 17 10 9 18 11
18 5 0 -19 49 2 95 41 48 41 50 44 35 67 -7 12 -13 11 -35 -10 l-25 -24 2 23
c2 13 -3 26 -9 28 -7 3 -13 0 -13 -5z"/>
<path d="M1944 3034 c-13 -18 -23 -24 -39 -20 -15 4 -29 -2 -46 -20 -13 -15
-62 -51 -109 -82 -116 -77 -169 -128 -265 -257 -45 -60 -88 -117 -96 -125 -8
-8 -32 -38 -54 -65 -22 -28 -72 -84 -111 -125 -39 -42 -74 -86 -78 -98 -5 -14
1 -35 18 -65 48 -81 113 -125 221 -150 77 -18 99 -15 330 39 54 13 181 23 485
39 123 7 178 19 241 52 51 27 76 23 136 -23 47 -36 43 -7 -6 44 -27 28 -57 46
-92 56 -68 21 -71 21 -131 -10 -115 -58 -259 -82 -525 -88 -183 -3 -192 -2
-183 15 6 10 10 22 10 28 0 22 -17 10 -33 -21 -30 -62 -19 3 13 70 20 43 25
62 16 62 -14 0 -58 -93 -70 -148 -4 -17 -12 -32 -18 -32 -14 0 -4 37 36 138
18 45 30 85 25 88 -11 7 -31 -35 -69 -148 -18 -53 -39 -99 -47 -102 -21 -8
-16 13 32 140 48 126 50 134 36 134 -9 0 -101 -241 -101 -266 0 -15 -27 -30
-37 -21 -6 7 46 161 83 244 12 29 19 55 14 58 -13 8 -31 -31 -80 -170 -24 -66
-46 -124 -51 -129 -20 -22 -19 30 1 87 33 90 69 179 80 199 6 10 10 26 10 35
0 15 -2 15 -14 3 -14 -14 -27 -46 -96 -227 -29 -75 -50 -105 -50 -69 0 18 70
203 108 289 22 47 27 67 18 67 -13 0 -55 -85 -91 -185 -19 -51 -35 -78 -35
-58 0 11 68 187 96 250 8 17 14 33 14 36 0 9 160 219 193 255 17 17 75 62 129
99 55 36 110 79 123 95 17 21 31 28 44 23 26 -8 77 51 60 71 -16 20 -26 17
-45 -12z"/>
<path d="M4885 3040 c3 -5 13 -10 21 -10 7 0 27 -18 43 -40 23 -31 31 -57 37
-108 9 -85 28 -139 61 -174 38 -40 20 -34 -27 8 -50 46 -51 30 -2 -44 64 -97
93 -179 58 -166 -10 4 -15 -9 -19 -53 -3 -32 -7 -67 -9 -78 -2 -12 3 -21 14
-23 20 -4 48 44 48 83 0 16 6 25 15 25 9 0 15 9 15 24 0 33 -37 116 -61 139
-28 26 -23 37 12 25 51 -17 58 5 15 43 -55 48 -80 102 -79 174 1 61 -11 86
-76 158 -23 25 -80 40 -66 17z"/>
<path d="M4810 2782 c0 -6 14 -46 31 -89 41 -100 46 -174 24 -310 -17 -111
-17 -180 0 -176 6 1 12 24 15 49 4 37 10 49 27 55 14 5 25 4 29 -2 10 -17 72
50 90 98 18 46 15 136 -4 155 -17 17 -28 0 -14 -22 17 -28 15 -96 -4 -136 -14
-30 -56 -54 -96 -54 -4 0 -5 44 -1 98 6 104 -4 160 -50 276 -20 53 -47 85 -47
58z"/>
<path d="M2621 2648 c-56 -75 -84 -149 -85 -228 0 -36 3 -74 7 -85 8 -19 9
-19 22 5 8 14 15 21 15 15 2 -31 19 -133 26 -149 5 -14 4 -17 -4 -12 -7 4 -12
5 -12 1 0 -12 90 -193 98 -197 15 -6 53 -81 44 -87 -6 -3 -15 -26 -22 -50 -25
-93 -77 -181 -175 -296 -36 -43 -64 -84 -61 -90 2 -7 -19 -24 -52 -41 -78 -39
-107 -61 -139 -106 -51 -75 -25 -190 55 -240 34 -21 48 -22 231 -23 208 -2
269 5 340 38 59 28 107 95 114 161 5 43 12 56 44 83 21 18 42 33 46 33 13 0
42 -33 62 -73 27 -52 94 -113 141 -127 22 -7 89 -14 149 -17 61 -3 124 -11
140 -18 29 -12 31 -15 32 -73 4 -134 86 -183 278 -167 97 9 116 9 185 -1 74
-10 195 45 212 97 4 12 7 12 21 1 21 -18 32 3 45 92 6 37 18 78 27 90 8 11 26
37 40 58 13 20 28 39 34 42 12 8 -49 239 -70 261 -15 15 -10 -15 16 -99 21
-68 22 -81 10 -90 -8 -6 -27 -42 -42 -80 -15 -38 -33 -71 -39 -73 -7 -2 -14
15 -19 42 -9 65 -19 48 -16 -29 3 -75 -13 -140 -39 -164 -10 -9 -35 -34 -57
-54 -40 -38 -79 -58 -116 -58 -19 0 -18 3 12 32 51 49 66 77 52 91 -8 8 -11 8
-11 -1 0 -15 -57 -80 -82 -93 -28 -15 -173 -22 -197 -10 -28 15 -17 43 41 107
28 30 44 54 37 54 -21 0 -77 -57 -99 -99 -32 -64 -87 -75 -157 -31 -30 18 -33
24 -33 67 0 70 16 115 64 186 40 58 51 78 89 152 36 72 28 282 -13 316 -23 19
-110 227 -110 261 0 13 -20 82 -45 153 -41 118 -45 139 -45 223 0 67 6 108 20
149 24 67 25 93 6 93 -28 0 -49 -80 -54 -204 l-4 -118 -26 43 c-29 51 -129
169 -143 169 -18 0 -9 -27 17 -51 47 -43 112 -138 134 -197 24 -62 32 -213 13
-246 -8 -15 -13 -10 -27 27 -9 25 -24 48 -33 51 -11 5 -14 2 -10 -11 28 -84
57 -206 57 -240 0 -23 7 -76 15 -118 8 -43 12 -81 10 -85 -11 -17 9 -40 58
-68 68 -38 82 -56 97 -120 11 -47 10 -55 -5 -72 -17 -19 -18 -19 -46 1 -37 26
-40 3 -4 -26 l26 -20 -32 -59 -32 -58 -51 7 c-28 3 -84 8 -125 11 -88 5 -139
17 -204 50 -47 24 -87 73 -87 106 0 10 -9 25 -19 35 -13 12 -22 39 -27 83 -8
73 -35 143 -67 178 -19 20 -21 33 -19 128 0 76 -2 104 -11 101 -26 -8 -32
-116 -11 -211 5 -21 4 -27 -5 -22 -23 14 -90 124 -106 174 -19 57 -40 90 -50
80 -11 -11 22 -96 65 -169 42 -70 115 -140 123 -117 6 19 35 -43 43 -89 5 -34
3 -40 -20 -53 -32 -17 -72 -98 -82 -164 -4 -27 -14 -57 -23 -66 -9 -10 -25
-28 -37 -41 -37 -43 -88 -82 -119 -90 -16 -5 -59 -9 -96 -9 -52 0 -70 4 -87
20 -24 23 -29 59 -10 78 17 17 2 28 -17 12 -18 -15 -20 -71 -3 -88 9 -9 5 -12
-18 -12 -17 0 -35 -5 -41 -11 -7 -7 -22 -5 -51 6 -54 22 -70 64 -47 123 9 22
23 43 31 46 18 7 18 26 0 26 -8 0 -24 -16 -36 -35 -18 -30 -21 -47 -19 -103
l4 -67 -35 4 c-47 4 -67 16 -85 51 -20 39 -19 66 6 117 24 51 67 84 172 137
80 40 103 64 94 98 -4 14 12 44 52 98 50 66 73 112 129 254 7 16 16 10 65 -43
43 -47 57 -57 57 -42 0 11 -4 22 -9 25 -5 3 -14 29 -21 56 -16 68 -5 149 26
196 28 40 25 57 -5 30 -28 -26 -55 -135 -47 -192 l6 -48 -25 24 c-14 14 -40
54 -58 89 -28 58 -32 74 -30 141 1 41 3 90 5 109 2 20 -2 36 -9 38 -18 6 -34
-33 -36 -88 -1 -27 -5 -49 -9 -49 -5 0 -8 8 -8 19 0 10 -12 40 -27 67 -24 42
-28 60 -28 131 0 69 3 86 22 112 31 42 10 51 -25 10 -15 -17 -33 -41 -40 -53
-11 -18 -12 -14 -9 35 4 64 48 167 96 221 33 37 37 48 21 48 -5 0 -27 -24 -49
-52z m1023 -557 c14 -36 26 -77 26 -93 0 -15 25 -91 55 -168 30 -77 55 -146
55 -153 0 -7 7 -22 15 -33 17 -22 21 -169 5 -179 -5 -3 -10 -1 -10 4 0 6 -18
30 -41 53 -57 60 -101 132 -126 208 -25 73 -24 120 1 201 16 51 16 61 2 132
-25 121 -22 126 18 28z"/>
<path d="M1595 2648 c-33 -26 -61 -86 -46 -101 5 -5 31 -12 58 -14 63 -6 103
22 103 72 0 63 -60 86 -115 43z"/>
<path d="M2430 2550 c0 -18 -73 -91 -117 -117 -55 -32 -58 -54 -5 -46 l37 6
-27 -30 c-42 -44 -37 -56 20 -47 l47 6 -39 -41 c-59 -61 -36 -61 28 0 31 29
53 56 48 61 -4 4 -25 3 -45 -3 -60 -16 -65 -6 -15 32 70 52 92 95 32 64 -54
-28 -56 -15 -5 33 31 30 51 56 51 70 0 12 -2 22 -5 22 -3 0 -5 -4 -5 -10z"/>
<path d="M5357 2494 c-3 -3 -2 -17 4 -31 6 -17 5 -32 -6 -53 -21 -41 -19 -112
5 -157 19 -38 71 -92 138 -146 32 -25 32 -27 10 -27 -55 0 -103 24 -160 78
-32 30 -61 52 -65 48 -10 -9 95 -113 126 -124 33 -13 202 -44 207 -39 3 2 -26
27 -64 55 -107 80 -148 129 -156 190 -8 58 0 102 19 102 7 0 29 -14 50 -30 37
-29 81 -48 90 -38 3 3 -16 20 -43 38 -65 46 -112 91 -123 118 -8 22 -20 28
-32 16z"/>
<path d="M4776 2338 c-3 -13 -6 -38 -6 -57 0 -18 -14 -62 -30 -96 -27 -56 -34
-63 -57 -62 -22 2 -32 -7 -55 -44 -16 -25 -39 -70 -51 -100 -12 -30 -26 -56
-32 -58 -17 -5 -35 61 -28 104 7 53 32 115 55 141 15 17 16 24 7 30 -18 11
-45 -28 -64 -91 -25 -88 -28 -112 -16 -146 10 -29 9 -35 -15 -60 -21 -22 -25
-36 -25 -83 0 -47 8 -74 50 -163 28 -58 50 -108 48 -110 -2 -2 -24 15 -49 37
-49 42 -91 118 -91 163 0 15 -4 27 -9 27 -14 0 -9 -70 8 -103 9 -18 29 -48 44
-67 29 -37 39 -86 46 -214 2 -38 6 -71 9 -74 12 -13 29 21 27 55 -1 21 1 62 4
91 5 45 8 52 23 47 30 -9 18 41 -35 150 -40 83 -49 109 -48 151 2 62 19 100
39 84 10 -8 12 -35 8 -110 -5 -109 7 -132 24 -47 21 99 24 111 47 157 12 25
31 47 41 49 37 7 101 -23 151 -71 64 -62 98 -127 98 -190 0 -40 3 -48 18 -48
14 0 18 8 18 33 0 17 4 38 9 46 15 23 23 -58 11 -118 -13 -67 -13 -131 -1
-131 5 0 19 12 30 26 31 40 25 12 -13 -65 -21 -42 -43 -70 -55 -74 -29 -7 -47
-74 -32 -120 17 -50 68 -101 125 -122 43 -16 56 -17 115 -7 106 19 114 21 122
33 11 19 79 26 139 15 119 -22 215 2 281 70 30 31 34 41 32 80 -2 24 -3 56 -2
72 3 125 7 170 18 190 16 30 2 102 -35 173 -14 28 -24 53 -21 55 2 2 21 -9 43
-26 50 -38 81 -40 38 -2 -17 15 -38 49 -49 76 -26 72 -185 234 -185 190 0 -4
29 -37 64 -74 35 -37 68 -82 74 -99 11 -32 11 -32 -17 -26 -29 6 -53 -11 -34
-24 5 -3 27 -41 48 -83 33 -68 37 -83 31 -125 -3 -27 -10 -49 -14 -50 -4 -2
-6 -63 -5 -136 1 -72 -1 -137 -5 -142 -7 -10 -14 -15 -87 -59 -37 -22 -44 -23
-110 -14 -82 12 -209 -3 -293 -34 -78 -29 -164 -18 -209 27 -43 43 -44 85 -5
125 37 36 55 64 82 128 21 50 22 53 6 71 -16 18 -16 21 -2 43 40 62 84 258 57
258 -6 0 -11 -15 -11 -32 -1 -69 -36 -173 -78 -237 -6 -8 -8 13 -4 57 4 61 1
76 -17 108 -20 33 -21 43 -12 79 18 71 25 181 12 189 -8 5 -11 -9 -11 -46 0
-50 -23 -168 -36 -190 -4 -5 -18 13 -33 41 -38 74 -119 167 -168 193 -24 13
-43 27 -43 32 0 4 16 30 35 56 51 69 84 148 91 216 5 46 3 62 -9 72 -12 10
-16 9 -21 -10z"/>
</g>
</svg>
