<?xml version="1.0" standalone="no"?>
<!DOCTYPE svg PUBLIC "-//W3C//DTD SVG 20010904//EN"
 "http://www.w3.org/TR/2001/REC-SVG-20010904/DTD/svg10.dtd">
<svg version="1.0" xmlns="http://www.w3.org/2000/svg"
 width="3906.000000pt" height="7240.000000pt" viewBox="0 0 3906.000000 7240.000000"
 preserveAspectRatio="xMidYMid meet">
<metadata>
Created by potrace 1.15, written by Peter Selinger 2001-2017
</metadata>
<g transform="translate(0.000000,7240.000000) scale(0.100000,-0.100000)"
fill="#000000" stroke="none">
<path d="M17995 72394 c-188 -19 -259 -29 -385 -54 -245 -49 -507 -131 -767
-240 -54 -23 -267 -126 -473 -230 -422 -212 -669 -329 -975 -465 -1150 -509
-2170 -812 -3015 -896 -174 -18 -512 -17 -632 0 -89 13 -114 13 -320 -8 -706
-70 -1357 -208 -1911 -406 -455 -162 -906 -389 -1255 -632 -354 -247 -698
-575 -944 -899 -252 -333 -441 -680 -597 -1094 -32 -84 -43 -105 -58 -103 -10
1 -81 12 -158 24 -186 30 -547 33 -700 6 -462 -81 -815 -273 -1144 -625 -865
-926 -1209 -1871 -1021 -2812 63 -316 190 -635 372 -932 l66 -106 -147 -89
c-268 -162 -497 -340 -717 -558 -445 -442 -754 -964 -985 -1667 -297 -901
-194 -1520 315 -1880 240 -169 559 -268 1046 -324 104 -12 325 -17 975 -24
466 -4 902 -13 980 -20 165 -13 417 -48 427 -58 4 -5 15 -95 23 -202 107
-1349 499 -2581 1192 -3740 198 -331 544 -817 803 -1130 386 -466 866 -949
1355 -1366 1042 -887 2377 -1695 3815 -2309 107 -46 228 -96 268 -112 80 -32
192 -115 652 -482 1250 -999 2618 -2244 4204 -3822 l538 -537 -6 -168 c-4 -93
-13 -527 -22 -964 -8 -437 -18 -945 -22 -1129 l-7 -334 -747 -421 c-411 -231
-746 -425 -744 -431 1 -5 328 -212 727 -460 l724 -451 0 -309 c0 -171 -6 -850
-14 -1510 -10 -911 -12 -1770 -7 -3565 l7 -2365 -28 26 c-15 14 -127 115 -248
225 -663 600 -1210 1120 -1923 1829 -1890 1876 -3401 3624 -4475 5177 -317
458 -330 483 -341 653 -53 815 -270 1786 -588 2635 -426 1139 -1038 2118
-1823 2919 -602 613 -1240 1078 -2020 1471 -1063 535 -2238 845 -3625 956
-271 21 -940 30 -1215 15 -730 -39 -1326 -155 -1839 -358 -183 -72 -592 -271
-580 -282 5 -4 83 -56 174 -114 212 -136 298 -206 499 -402 321 -314 586 -642
886 -1095 420 -634 765 -1314 1112 -2190 171 -431 377 -819 674 -1265 1105
-1662 2728 -2809 4634 -3275 716 -175 1549 -265 2291 -247 l242 6 134 -142
c109 -116 515 -552 717 -772 219 -237 783 -862 1034 -1146 118 -133 333 -416
324 -426 -5 -5 -388 75 -507 106 -311 81 -597 206 -750 328 -274 217 -649 453
-1015 636 -669 335 -1344 538 -2035 614 -230 25 -772 25 -982 0 -944 -113
-1778 -481 -2542 -1124 -71 -59 -192 -157 -270 -216 -576 -443 -1063 -881
-1404 -1262 -277 -310 -469 -602 -557 -845 -26 -73 -115 -429 -115 -461 0 -14
26 -9 167 28 539 140 1056 204 1638 205 861 0 1521 -152 2136 -493 171 -94
344 -168 589 -249 958 -320 1944 -332 2808 -35 389 134 769 331 1100 572 369
269 745 638 1042 1022 l64 83 176 -6 c483 -18 896 -47 1215 -87 168 -21 170
-21 195 -52 143 -180 587 -709 854 -1017 577 -666 934 -1053 2096 -2275 685
-719 1165 -1227 1604 -1694 l379 -403 -12 -312 c-13 -365 -27 -804 -37 -1178
l-6 -268 -749 -451 c-412 -248 -749 -454 -749 -457 0 -4 332 -201 737 -439
l738 -431 7 -473 c32 -2231 44 -2707 98 -3969 295 -6860 1229 -13086 2725
-18170 377 -1279 842 -2644 1242 -3645 l68 -169 102 -33 c275 -88 579 -91 822
-8 393 133 661 478 775 995 26 121 53 316 45 324 -3 3 -32 8 -65 11 -121 12
-144 16 -138 26 3 6 39 35 79 64 l73 54 -67 133 c-338 670 -845 2091 -1249
3498 -1055 3673 -1814 8138 -2231 13120 -44 516 -131 1692 -127 1696 0 1 324
232 719 513 394 281 717 515 717 519 0 4 -345 174 -767 378 l-768 370 -7 80
c-8 92 -33 630 -50 1096 l-12 327 57 73 c348 451 1713 1742 4160 3932 l379
339 156 23 c331 49 580 67 1187 84 502 15 829 40 1212 96 1132 163 2021 508
2697 1048 133 106 400 373 510 511 270 338 657 1005 1266 2180 116 226 238
460 270 521 l59 112 -83 55 c-81 54 -83 56 -90 102 -3 26 -6 74 -6 106 0 55
-1 59 -24 59 -13 0 -640 -40 -1392 -90 -753 -49 -1407 -92 -1454 -95 -47 -2
-242 -9 -435 -15 -721 -21 -1018 -46 -1370 -117 -873 -174 -1561 -693 -2055
-1547 -149 -258 -279 -544 -528 -1161 -82 -203 -168 -411 -190 -460 -50 -113
-183 -379 -254 -506 l-53 -97 -275 -213 c-151 -117 -691 -546 -1200 -954
-1239 -991 -1554 -1238 -1983 -1553 -218 -160 -525 -367 -534 -359 -3 3 -9
221 -14 484 -5 263 -13 649 -19 858 -29 1081 -3 1974 90 3064 l20 234 32 36
c52 61 833 856 1433 1460 1837 1848 3831 3769 5427 5228 l286 262 189 61 c424
139 739 222 1443 380 223 50 551 126 730 170 474 115 667 155 1260 260 696
123 1076 214 1505 360 944 321 1713 828 2486 1636 915 957 1749 2315 2504
4074 130 302 150 367 675 2125 150 501 314 1049 366 1219 l94 310 -1 320 c-1
324 -8 509 -21 521 -11 11 -641 -35 -1098 -80 -1677 -165 -3010 -462 -4125
-920 -1086 -445 -2048 -1018 -2820 -1680 -272 -232 -658 -612 -866 -850 -753
-863 -1323 -1884 -1885 -3371 -278 -738 -728 -2053 -1024 -2999 -78 -247 -152
-480 -166 -517 l-25 -66 -352 -300 c-708 -603 -1279 -1098 -2982 -2587 -1599
-1398 -2743 -2392 -2985 -2595 l-50 -42 0 184 c0 269 20 1440 26 1533 l5 81
760 464 c417 256 757 469 756 474 -2 6 -331 198 -732 428 -401 230 -733 422
-738 427 -20 20 88 3204 173 5081 52 1147 172 3349 185 3416 3 13 145 136 362
314 1120 920 3155 2599 4173 3443 l405 336 185 82 c1817 805 3413 2046 4720
3669 1073 1333 1943 2908 2590 4690 244 672 480 1472 621 2107 l22 102 76 64
c573 478 1074 639 2136 687 578 26 678 31 815 46 605 62 1011 206 1267 448
227 214 323 447 323 780 0 390 -145 808 -486 1403 -556 969 -1278 1776 -2134
2384 -85 61 -166 118 -178 127 l-24 17 19 135 c23 169 26 676 5 835 -123 926
-614 1722 -1451 2354 -592 447 -1389 825 -2288 1086 -496 144 -840 220 -2183
484 -1751 344 -2519 524 -3231 757 -403 131 -662 240 -959 402 -1036 565
-1933 879 -2830 989 -184 23 -804 26 -970 5 -618 -78 -1141 -272 -1630 -603
-63 -43 -161 -114 -216 -157 l-102 -80 -73 92 c-97 120 -280 303 -399 398
-331 264 -705 429 -1120 493 -100 15 -458 28 -545 19z"/>
</g>
</svg>
